<svg width="491" height="643" viewBox="0 0 491 643" fill="none" xmlns="http://www.w3.org/2000/svg">
<path d="M183.039 83.4738C154.749 105.531 132.935 134.796 105.618 157.973C78.302 181.151 46.2137 198.047 28.0514 228.042C11.496 255.358 9.74303 288.859 8.28225 320.801C5.68532 379.329 3.13709 437.857 0.63754 496.386C-1.26146 539.527 -0.871924 588.512 30.5347 618.117C50.3038 636.815 79.2271 643.534 106.3 642.073C133.373 640.613 159.862 631.799 185.523 623.132L390.031 554.33C410.336 547.513 431.176 540.404 447.731 526.721C488.195 493.415 491.019 433.572 490.63 381.179C489.948 297.039 489.25 212.882 488.536 128.709C488.195 86.7849 484.689 38.3359 450.702 13.7462C426.355 -3.83178 392.612 -3.15008 364.76 7.9031C335.349 19.5406 313.048 50.2168 282.421 56.2547C244.343 63.8994 217.27 56.7903 183.039 83.4738Z" fill="#E23B00"/>
</svg>
