<svg width="490" height="297" viewBox="0 0 490 297" fill="none" xmlns="http://www.w3.org/2000/svg">
<path d="M6.80358 296.368H4.37593C4.37593 287.094 4.37593 282.481 4.37593 277.82C4.37593 273.159 4.37593 268.547 4.37593 259.273C4.46516 253.137 3.84606 247.011 2.53092 241.017C1.13708 234.854 0.485081 228.546 0.588805 222.227C0.532879 215.998 0.857168 209.772 1.55986 203.583C2.21398 197.471 2.52197 191.328 2.48237 185.181C2.53714 179.033 2.21284 172.888 1.51131 166.78C0.631524 160.667 0.12886 154.505 0.00617036 148.33C-0.0345411 142.103 0.273443 135.878 0.928675 129.685C1.58279 123.574 1.89078 117.43 1.85118 111.284C1.94432 105.138 1.65243 98.9919 0.977228 92.8823C0.274533 86.6931 -0.0497556 80.4667 0.00617036 74.238C-0.0447657 68.0281 0.246995 61.82 0.880123 55.6422C1.51035 49.5292 1.80211 43.386 1.75408 37.2407C1.66172 30.9254 2.2971 24.6206 3.64764 18.4507C4.96278 12.4566 5.58188 6.33083 5.49265 0.194824H7.92029C8.01021 6.49392 7.37484 12.7824 6.02673 18.9362C4.71214 24.9468 4.09307 31.0887 4.18172 37.2407C4.23118 43.4506 3.93943 49.6585 3.30777 55.8364C2.67616 61.9494 2.38439 68.0927 2.43382 74.238C2.38541 80.3212 2.7097 86.4017 3.40487 92.4453C4.13028 98.633 4.4708 104.86 4.42448 111.09C4.46368 117.317 4.1557 123.541 3.50198 129.734C2.82128 135.843 2.5132 141.989 2.57947 148.136C2.50077 154.35 2.84141 160.563 3.59909 166.731C4.30178 172.92 4.62607 179.147 4.57014 185.376C4.61449 191.635 4.3065 197.892 3.64764 204.117C2.9445 210.225 2.6202 216.371 2.67658 222.519C2.59093 228.67 3.20996 234.812 4.52159 240.823C5.91618 246.97 6.56821 253.262 6.46371 259.564C6.46371 268.838 6.46371 273.451 6.46371 278.063C6.46371 282.676 6.80358 287.288 6.80358 296.368Z" fill="black"/>
<path d="M23.0201 296.368H20.5925C20.5925 287.142 20.2526 282.433 19.9128 277.917C19.5729 273.402 19.4272 268.789 19.4272 259.467C19.3536 253.203 19.8575 246.946 20.9324 240.774C22.0043 234.717 22.5082 228.573 22.4375 222.421C22.5005 216.242 21.7164 210.083 20.107 204.117C18.551 197.978 17.8163 191.659 17.9221 185.327C17.9221 176.053 17.9221 171.441 17.9221 166.828C17.9221 162.216 17.9221 157.555 17.9221 148.281V111.284C17.7066 104.951 18.3269 98.6165 19.7671 92.4453C21.3066 86.4856 22.0254 80.3436 21.9034 74.1894C21.9487 68.0564 21.6082 61.9267 20.8838 55.8364C20.1603 49.6486 19.8197 43.422 19.8642 37.1921C19.7963 30.9284 20.3001 24.6715 21.3693 18.4993C22.4223 12.4563 22.9099 6.3283 22.8259 0.194824L25.2536 0.194824C25.3525 6.45963 24.8485 12.7194 23.7484 18.8877C22.7233 24.9505 22.2359 31.0921 22.2918 37.2407C22.2465 43.3737 22.5871 49.5034 23.3115 55.5937C24.0188 61.7825 24.3431 68.0092 24.2825 74.238C24.3883 80.5704 23.6536 86.8888 22.0976 93.028C20.6038 98.9953 19.9019 105.133 20.0099 111.284V148.33C20.0099 157.555 20.0099 162.216 20.0099 166.828C20.0099 171.441 20.0099 176.102 20.0099 185.376C19.8879 191.53 20.6067 197.672 22.1462 203.631C23.7021 209.771 24.4368 216.089 24.3311 222.421C24.4047 228.685 23.9008 234.943 22.8259 241.114C21.754 247.172 21.2501 253.316 21.3208 259.467C21.3208 268.692 21.7092 273.402 22.0005 277.917C22.2918 282.433 23.0201 287.24 23.0201 296.368Z" fill="black"/>
<path d="M40.6935 296.368H38.2659C38.2659 287.094 38.2659 282.433 37.8289 277.869C37.3919 273.305 37.3434 268.595 37.3434 259.273C37.3434 249.951 37.3434 245.338 37.052 240.774C36.7607 236.21 37.052 231.501 37.052 222.227C37.052 212.954 36.4694 208.487 36.2266 204.117C35.9839 199.747 35.5955 194.795 35.5955 185.521C35.5955 176.248 35.9353 171.489 36.2752 166.925C36.6151 162.362 36.9064 157.7 36.9064 148.475C36.7507 142.107 37.4033 135.744 38.8485 129.54C40.2532 123.559 40.9056 117.426 40.7906 111.284C40.8973 105.136 40.3109 98.9959 39.0427 92.9794C37.7147 86.8231 37.0957 80.5351 37.1977 74.238C37.1977 65.0615 36.8578 60.3519 36.518 55.8364C36.1781 51.321 35.9353 46.5143 35.9353 37.2407C35.8794 31.0119 36.2037 24.7856 36.9064 18.5964C37.6079 12.4883 37.9322 6.3428 37.8774 0.194824H40.3051C40.361 6.42356 40.0367 12.6499 39.334 18.8391C38.6309 24.9471 38.3066 31.0927 38.363 37.2407C38.363 46.4172 38.7028 51.1268 39.0427 55.6422C39.3826 60.1577 39.7225 64.9644 39.7225 74.238C39.6308 80.3555 40.2334 86.4637 41.5189 92.4453C42.7984 98.6084 43.4008 104.893 43.3154 111.187C43.4088 117.507 42.7404 123.816 41.3247 129.977C39.8935 135.954 39.2246 142.088 39.334 148.233C39.334 157.652 38.8485 162.362 38.8485 166.925C38.8485 171.489 38.1688 176.151 38.1688 185.376C38.1688 194.601 38.363 199.262 38.8485 203.826C39.334 208.39 39.4311 213.099 39.4311 222.421C39.4311 231.744 39.4311 236.356 39.6739 240.92C39.9167 245.484 39.9652 250.194 39.9652 259.467C39.9652 268.741 40.208 273.402 40.4507 277.966C40.6935 282.53 40.6935 287.24 40.6935 296.368Z" fill="black"/>
<path d="M57.4928 296.368H55.0652C55.0652 287.142 54.7739 282.433 54.5311 277.869C54.2883 273.305 53.997 268.595 53.997 259.273C53.9212 252.989 54.4578 246.712 55.5993 240.532C56.7659 234.502 57.3029 228.368 57.2015 222.227C57.2015 213.002 57.2015 208.293 56.9102 203.729C56.6189 199.165 56.6189 194.455 56.6189 185.181C56.6698 179.036 56.378 172.893 55.7449 166.78C55.0662 160.589 54.7582 154.363 54.8224 148.136C54.8224 138.862 54.8224 134.249 54.8224 129.588C54.8224 124.927 54.8224 120.363 54.8224 111.09C54.8224 101.816 54.8224 97.155 54.5797 92.591C54.3369 88.027 54.5797 83.3174 54.5797 74.0438C54.4735 67.7054 55.2414 61.3826 56.8617 55.2538C58.4655 49.3213 59.2175 43.1908 59.0951 37.0465C59.19 30.9016 58.6202 24.7644 57.3957 18.742C56.0976 12.646 55.4627 6.42742 55.5022 0.194824L57.9298 0.194824C57.8482 6.34159 58.4343 12.479 59.6777 18.4993C60.9334 24.6653 61.5194 30.9488 61.4256 37.2407C61.5318 43.5791 60.7639 49.9019 59.1436 56.0307C57.5359 61.9624 56.7838 68.0935 56.9102 74.238C56.9102 83.5116 56.9102 88.1727 56.9102 92.7366C56.9102 97.3006 57.153 102.01 57.153 111.284C57.153 120.557 57.153 125.17 57.153 129.831C57.153 134.492 57.153 139.056 57.153 148.33C57.1842 154.48 57.557 160.623 58.2697 166.731C58.95 172.922 59.2581 179.148 59.1922 185.376C59.1922 194.601 59.1922 199.31 59.4835 203.874C59.7748 208.438 59.7748 213.148 59.7748 222.421C59.8827 228.703 59.3786 234.979 58.2697 241.163C57.1058 247.193 56.5689 253.327 56.6674 259.467C56.6674 268.692 56.9102 273.402 57.2015 277.966C57.4928 282.53 57.4928 287.24 57.4928 296.368Z" fill="black"/>
<path d="M78.3219 296.368H75.8943C75.9506 290.219 75.6263 284.074 74.9232 277.966C74.2225 271.76 73.8982 265.518 73.9521 259.273C73.9521 249.999 74.2435 245.241 74.4862 240.677C74.729 236.113 75.0203 231.452 75.0203 222.227C75.1018 216.142 74.4992 210.067 73.2239 204.117C71.9443 197.954 71.3419 191.669 71.4274 185.376V148.33C71.4274 139.008 71.7187 134.298 72.01 129.734C72.3014 125.17 72.5927 120.509 72.5927 111.284C72.4882 104.982 73.1402 98.6894 74.5348 92.5424C75.8926 86.5381 76.5283 80.3931 76.4283 74.238C76.4664 68.0917 76.1584 61.9481 75.5058 55.8364C74.8027 49.6635 74.4784 43.4533 74.5348 37.2407C74.6115 31.0878 74.2383 24.9376 73.4181 18.8391C72.5757 12.6611 72.1862 6.42969 72.2528 0.194824L74.6804 0.194824C74.6148 6.33288 75.0043 12.4674 75.8457 18.5478C76.6404 24.7463 77.0135 30.9916 76.9624 37.2407C76.858 43.3672 77.1011 49.4947 77.6907 55.5937C78.3919 61.783 78.7161 68.0093 78.6618 74.238C78.7439 80.5554 78.0921 86.8609 76.7197 93.028C75.3583 99.0153 74.7226 105.145 74.8261 111.284C74.8261 120.557 74.5348 125.316 74.2435 129.88C73.9522 134.444 73.6608 139.105 73.6608 148.33V185.376C73.5647 191.525 74.1674 197.666 75.4573 203.68C76.8837 209.827 77.6327 216.112 77.6907 222.421C77.6907 231.695 77.6907 236.453 77.1566 241.017C76.6226 245.581 76.6226 250.242 76.6226 259.467C76.5662 265.615 76.8905 271.761 77.5936 277.869C78.2055 284.015 78.4487 290.192 78.3219 296.368Z" fill="black"/>
<path d="M97.3548 296.368H94.9272C94.9272 287.142 94.5388 282.433 94.1503 277.917C93.7619 273.402 93.422 268.595 93.422 259.273C93.422 249.951 93.1307 245.338 92.888 240.823C92.6452 236.308 92.4024 231.501 92.4024 222.227C92.45 216.173 92.0932 210.123 91.3343 204.117C90.5393 197.935 90.1662 191.706 90.2176 185.473C90.2176 176.199 90.2176 171.538 90.4603 166.925C90.7031 162.313 90.4603 157.652 90.4603 148.427C90.4603 139.202 90.4603 134.541 90.4603 129.928C90.4603 125.316 90.4603 120.655 90.4603 111.381C90.4603 102.107 90.4603 97.3977 90.4603 92.8338C90.4603 88.2698 90.7031 83.6087 90.7031 74.3351C90.5986 68.0328 91.2506 61.7407 92.6452 55.5937C93.9574 49.5991 94.5764 43.4737 94.4902 37.3378C94.5659 31.1924 94.111 25.052 93.1307 18.9848C92.129 12.7737 91.6902 6.48484 91.8198 0.194824L94.2474 0.194824C94.1718 6.34021 94.6266 12.4807 95.6069 18.5478C96.6452 24.7239 97.1488 30.978 97.1121 37.2407C97.202 43.5398 96.5666 49.8283 95.2185 55.9821C93.8599 61.9698 93.2242 68.0989 93.3249 74.238C93.3249 83.5116 93.3249 88.2212 93.0822 92.7852C92.8394 97.3492 93.0822 102.059 93.0822 111.284C93.0822 120.509 93.0822 125.17 93.0822 129.783C93.0822 134.395 93.0822 139.056 93.0822 148.33C93.0822 157.603 93.0822 162.216 92.8394 166.877C92.5967 171.538 92.8394 176.102 92.8394 185.376C92.7889 191.512 93.162 197.644 93.9561 203.729C94.7265 209.929 95.0834 216.174 95.0243 222.421C95.0243 231.646 95.0243 236.356 95.5098 240.872C95.9954 245.387 96.0439 250.194 96.0439 259.467C96.0439 268.741 96.4323 273.402 96.7722 277.917C97.1121 282.433 97.3548 287.24 97.3548 296.368Z" fill="black"/>
<path d="M113.669 296.368H111.241C111.297 290.219 110.809 284.077 109.784 278.015C108.712 271.826 108.208 265.553 108.279 259.273C108.279 249.999 108.571 245.241 108.862 240.677C109.153 236.113 109.444 231.452 109.444 222.227C109.444 213.002 109.833 208.195 110.221 203.583C110.832 197.469 111.107 191.326 111.047 185.181C111.118 179.04 110.695 172.902 109.784 166.828C108.852 160.642 108.414 154.391 108.473 148.136C108.473 138.813 108.91 134.055 109.299 129.491C109.932 123.378 110.224 117.235 110.173 111.09C110.249 104.95 109.712 98.8182 108.571 92.7852C107.364 86.6776 106.778 80.4635 106.823 74.238C106.721 67.9409 107.34 61.6529 108.668 55.4966C109.98 49.502 110.599 43.3766 110.513 37.2407C110.592 31.101 110.055 24.9688 108.91 18.9362C107.755 12.7583 107.235 6.47858 107.357 0.194824L109.784 0.194824C109.71 6.33433 110.247 12.466 111.387 18.4993C112.55 24.6771 113.103 30.9545 113.037 37.2407C113.127 43.5398 112.492 49.8283 111.144 55.9821C109.853 61.9794 109.251 68.1042 109.347 74.238C109.275 80.3453 109.812 86.4446 110.95 92.4453C112.113 98.6232 112.666 104.901 112.6 111.187C112.637 117.446 112.329 123.703 111.678 129.928C111.092 136.044 110.817 142.186 110.852 148.33C110.782 154.471 111.204 160.609 112.115 166.683C113.049 172.869 113.487 179.12 113.426 185.376C113.426 194.698 112.989 199.407 112.6 204.02C112.212 208.632 111.678 213.196 111.678 222.421C111.678 231.646 111.387 236.453 111.095 241.017C110.804 245.581 110.513 250.242 110.513 259.467C110.432 265.617 110.919 271.761 111.969 277.82C113.095 283.939 113.663 290.146 113.669 296.368V296.368Z" fill="black"/>
<path d="M131.682 296.368H129.254C129.315 290.224 128.876 284.087 127.943 278.015C126.962 271.817 126.508 265.547 126.584 259.273C126.522 253.041 126.879 246.813 127.652 240.629C128.376 234.522 128.716 228.376 128.671 222.227C128.733 216.172 128.359 210.119 127.555 204.117C126.69 197.907 126.252 191.645 126.244 185.376C126.244 176.151 126.244 171.441 126.001 166.877C125.758 162.313 126.001 157.603 126.001 148.33C125.916 142.036 126.518 135.751 127.797 129.588C129.019 123.566 129.589 117.429 129.497 111.284C129.497 102.059 129.497 97.3492 129.205 92.7852C128.914 88.2212 128.914 83.5116 128.914 74.238C128.993 68.1047 128.506 61.9772 127.458 55.9336C126.387 49.7615 125.883 43.5045 125.952 37.2407C125.896 30.9883 126.302 24.7404 127.166 18.5478C128.014 12.468 128.403 6.33304 128.331 0.194824L130.759 0.194824C130.813 6.44711 130.408 12.6949 129.545 18.8877C128.655 24.9635 128.249 31.1005 128.331 37.2407C128.253 43.374 128.74 49.5015 129.788 55.5451C130.818 61.7202 131.257 67.9795 131.099 74.238C131.099 83.5116 131.099 88.1727 131.39 92.7366C131.682 97.3006 131.682 102.01 131.682 111.284C131.775 117.576 131.189 123.859 129.934 130.025C128.663 136.041 128.076 142.182 128.186 148.33C128.186 157.555 128.186 162.264 128.186 166.828C128.186 171.392 128.429 176.102 128.429 185.376C128.378 191.512 128.751 197.644 129.545 203.729C130.509 209.914 131.028 216.161 131.099 222.421C131.145 228.651 130.805 234.878 130.079 241.066C129.31 247.169 128.953 253.316 129.011 259.467C128.95 265.61 129.389 271.748 130.322 277.82C131.292 283.954 131.747 290.158 131.682 296.368V296.368Z" fill="black"/>
<path d="M149.986 296.368H147.558C147.558 287.142 147.17 282.433 146.782 277.917C146.393 273.402 146.005 268.595 146.005 259.273C146.005 249.951 146.005 245.29 146.345 240.726C146.684 236.162 146.684 231.452 146.684 222.227C146.684 213.002 146.345 208.341 146.005 203.777C145.665 199.213 145.374 194.504 145.374 185.181C145.303 178.901 145.807 172.628 146.879 166.44C147.979 160.402 148.483 154.272 148.384 148.136C148.475 141.988 148.003 135.844 146.976 129.783C146.016 123.665 145.577 117.476 145.665 111.284C145.665 102.156 145.665 97.3006 145.665 92.7366C145.665 88.1727 145.665 83.5116 145.665 74.238C145.665 64.9644 145.665 60.3033 145.325 55.7879C144.985 51.2725 144.985 46.5143 144.985 37.2407C144.985 27.9671 144.985 23.2575 145.228 18.6935C145.471 14.1295 145.665 9.41987 145.665 0.194824H148.092C148.092 9.46843 148.092 14.1781 148.092 18.742C148.092 23.306 147.85 27.9671 147.85 37.2407C147.85 46.5143 147.85 51.1754 148.19 55.6908C148.529 60.2062 148.529 64.9644 148.529 74.238C148.529 83.5116 148.529 88.1727 148.529 92.7852C148.529 97.3977 148.529 102.01 148.529 111.284C148.463 117.431 148.935 123.572 149.937 129.637C150.943 135.816 151.414 142.07 151.346 148.33C151.419 154.594 150.915 160.851 149.84 167.023C148.744 173.077 148.239 179.224 148.335 185.376C148.335 194.601 148.675 199.262 148.966 203.826C149.258 208.39 149.646 213.099 149.646 222.421C149.646 231.744 149.646 236.405 149.306 240.969C148.966 245.533 148.966 250.242 148.966 259.467C148.966 268.692 149.355 273.402 149.743 277.917C150.132 282.433 149.986 287.24 149.986 296.368Z" fill="black"/>
<path d="M167.319 296.367H165.086C165.086 287.045 165.426 282.287 165.766 277.723C166.106 273.159 166.446 268.498 166.446 259.272C166.534 253.13 165.981 246.995 164.795 240.968C163.631 234.79 163.078 228.513 163.144 222.227C163.075 215.967 163.546 209.713 164.552 203.534C165.508 197.464 165.962 191.325 165.911 185.181C165.911 175.956 165.523 171.295 165.135 166.731C164.746 162.167 164.358 157.457 164.358 148.135C164.393 141.991 164.118 135.849 163.532 129.733C162.901 123.539 162.609 117.315 162.658 111.089C162.527 104.859 162.852 98.6275 163.629 92.4447C164.423 86.3437 164.796 80.1954 164.746 74.0432C164.847 67.9041 164.211 61.775 162.853 55.7873C161.504 49.6335 160.869 43.345 160.959 37.0459C160.959 27.7237 160.959 23.0141 161.299 18.4501C161.639 13.8861 161.687 9.22505 161.687 0H164.115C164.115 9.2736 164.115 13.9832 163.727 18.5472C163.338 23.1112 163.387 27.7723 163.387 37.0459C163.212 43.2418 163.783 49.4362 165.086 55.496C166.481 61.6429 167.133 67.9351 167.028 74.2374C167.092 80.4883 166.703 86.7357 165.863 92.9303C165.182 99.0228 164.923 105.155 165.086 111.283C165.05 117.427 165.326 123.569 165.911 129.685C166.544 135.879 166.836 142.103 166.785 148.329C166.785 157.554 167.174 162.215 167.562 166.731C167.951 171.246 168.339 176.053 168.339 185.375C168.344 191.657 167.808 197.927 166.737 204.116C165.781 210.186 165.327 216.325 165.377 222.469C165.289 228.612 165.842 234.746 167.028 240.774C168.192 246.952 168.745 253.229 168.679 259.515C168.679 268.837 168.339 273.547 167.999 278.16C167.659 282.772 167.319 287.336 167.319 296.367Z" fill="black"/>
<path d="M182.08 296.368H179.652C179.581 290.088 180.085 283.814 181.157 277.626C182.207 271.566 182.695 265.423 182.614 259.273C182.614 250.048 182.614 245.338 182.128 240.823C181.643 236.308 181.691 231.501 181.691 222.227C181.691 212.954 182.031 208.195 182.371 203.631C182.711 199.068 183.099 194.406 183.099 185.181C183.099 175.956 183.099 171.198 183.099 166.634C183.099 162.07 183.099 157.361 183.099 148.136C183.15 141.99 182.858 135.847 182.225 129.734C181.547 123.543 181.239 117.317 181.303 111.09C181.366 104.854 181.804 98.6282 182.614 92.4453C183.269 86.3339 183.577 80.1902 183.536 74.0438C183.584 67.8985 183.293 61.7553 182.662 55.6422C181.983 49.4677 181.675 43.2579 181.74 37.0465C181.786 30.8973 181.446 24.7513 180.72 18.6449C179.962 12.5248 179.605 6.36157 179.652 0.194824L182.08 0.194824C182.027 6.34277 182.351 12.4882 183.051 18.5964C183.823 24.7803 184.18 31.009 184.119 37.2407C184.071 43.386 184.363 49.5292 184.993 55.6422C185.674 61.8167 185.982 68.0265 185.915 74.238C185.956 80.4651 185.648 86.6896 184.993 92.8823C184.314 98.9919 184.006 105.137 184.07 111.284C184.021 117.429 184.313 123.572 184.944 129.685C185.625 135.876 185.933 142.102 185.867 148.33C185.867 157.603 185.867 162.313 185.867 166.877C185.867 171.441 185.867 176.102 185.867 185.376C185.867 194.649 185.139 199.262 184.799 204.117C184.459 208.972 184.119 213.342 184.119 222.567C184.119 231.792 184.119 236.502 184.556 241.017C184.993 245.533 185.041 250.339 185.041 259.613C185.112 265.893 184.608 272.166 183.536 278.354C182.507 284.302 182.02 290.331 182.08 296.368Z" fill="black"/>
<path d="M200.967 296.368H198.539C198.539 287.094 198.539 282.433 198.539 277.772C198.539 273.111 198.539 268.547 198.539 259.273C198.539 249.999 198.539 245.338 198.248 240.774C197.956 236.21 197.908 231.501 197.908 222.227C197.908 212.954 197.908 208.244 198.199 203.68C198.49 199.116 199.073 194.406 199.073 185.376C199.073 176.345 199.073 171.489 199.073 166.828C199.073 162.167 199.073 157.603 199.073 148.33C199.027 142.1 199.367 135.873 200.093 129.685C200.816 123.579 201.157 117.433 201.112 111.284C201.266 105.134 200.58 98.9922 199.073 93.028C197.471 86.8966 196.719 80.5741 196.84 74.238C196.84 64.9644 197.131 60.2548 197.374 55.6422C197.616 51.0297 197.956 46.4657 197.956 37.2407C197.885 30.9607 198.389 24.6874 199.461 18.4993C200.488 12.4539 200.943 6.32544 200.821 0.194824H203.249C203.322 6.45879 202.818 12.7162 201.743 18.8877C200.671 24.9452 200.168 31.0895 200.238 37.2407C200.238 46.5143 199.947 51.2239 199.656 55.7879C199.364 60.3519 199.122 65.0129 199.122 74.238C199.014 80.3784 199.75 86.5046 201.306 92.4453C202.862 98.5845 203.597 104.903 203.491 111.235C203.538 117.465 203.197 123.692 202.472 129.88C201.721 135.984 201.381 142.131 201.452 148.281C201.452 157.555 201.452 162.167 201.452 166.828C201.452 171.489 201.452 176.053 201.452 185.327C201.452 194.601 201.452 199.31 201.161 203.874C200.869 208.438 200.869 213.148 200.869 222.373C200.869 231.598 200.869 236.308 201.161 240.872C201.452 245.436 201.501 250.145 201.501 259.419C201.501 268.692 201.501 273.353 201.501 277.966C201.501 282.578 200.967 287.288 200.967 296.368Z" fill="black"/>
<path d="M220.436 296.368H218.009C218.009 287.045 218.251 282.336 218.446 277.772C218.64 273.208 218.834 268.547 218.834 259.273C218.834 249.999 218.834 245.241 219.368 240.677C219.902 236.113 219.902 231.452 219.902 222.227C220.063 216.158 219.591 210.088 218.494 204.117C217.331 197.939 216.778 191.662 216.843 185.376C216.914 179.234 216.492 173.097 215.581 167.023C214.696 160.832 214.274 154.583 214.319 148.33C214.213 141.975 214.981 135.637 216.601 129.491C218.097 123.543 218.735 117.412 218.494 111.284C218.494 102.059 218.106 97.3977 217.717 92.8823C217.329 88.3669 216.941 83.5602 216.941 74.238C216.941 64.9158 216.941 60.2548 216.941 55.6908C216.941 51.1268 216.941 46.4657 216.941 37.2407C217.046 30.9984 217.565 24.77 218.494 18.5964C219.154 12.4853 219.462 6.34129 219.417 0.194824L221.844 0.194824C221.891 6.42471 221.55 12.6515 220.825 18.8391C220.122 24.9471 219.797 31.0927 219.854 37.2407C219.854 46.5143 219.854 51.2239 219.854 55.7393C219.854 60.2548 219.854 65.0129 219.854 74.238C219.854 83.463 220.242 88.1241 220.631 92.6881C221.019 97.2521 221.407 101.962 221.407 111.284C221.517 117.622 220.749 123.946 219.125 130.074C217.543 136.027 216.791 142.171 216.892 148.33C216.821 154.471 217.243 160.609 218.154 166.683C219.064 172.871 219.486 179.121 219.417 185.376C219.328 191.518 219.881 197.653 221.068 203.68C222.255 209.855 222.808 216.134 222.718 222.421C222.718 231.695 222.427 236.453 222.184 241.017C221.941 245.581 221.65 250.242 221.65 259.467C221.65 268.692 221.65 273.499 221.262 278.063C220.873 282.627 220.436 287.288 220.436 296.368Z" fill="black"/>
<path d="M237.624 296.368H235.196C235.248 290.215 234.875 284.067 234.08 277.966C233.326 271.83 232.985 265.649 233.06 259.467C232.951 253.106 233.752 246.763 235.439 240.629C237.072 234.701 237.84 228.569 237.721 222.421C237.721 213.148 237.721 208.535 237.721 203.923C237.721 199.31 237.721 194.649 237.721 185.376C237.721 176.102 237.333 171.489 236.993 166.925C236.653 162.362 236.216 157.652 236.216 148.33C236.216 139.008 236.604 134.298 236.993 129.685C237.381 125.073 237.721 120.509 237.721 111.284C237.85 105.124 236.947 98.9868 235.051 93.1251C233.091 87.0256 232.156 80.6434 232.283 74.238C232.143 67.8204 233.129 61.428 235.196 55.3509C237.172 49.5238 238.093 43.3911 237.915 37.2407C237.915 28.0156 237.527 23.3546 237.187 18.7906C236.847 14.2266 236.362 9.51698 236.362 0.194824H238.789C238.789 9.41987 239.178 14.081 239.518 18.5964C239.857 23.1118 240.246 27.9185 240.246 37.2407C240.381 43.646 239.378 50.0244 237.284 56.0792C235.281 61.9185 234.327 68.0663 234.468 74.238C234.32 80.4146 235.223 86.5713 237.138 92.4453C239.099 98.528 240.034 104.894 239.906 111.284C239.906 120.606 239.518 125.316 239.129 129.88C238.741 134.444 238.401 139.105 238.401 148.33C238.401 157.555 238.789 162.216 239.178 166.731C239.566 171.247 239.906 176.053 239.906 185.376C239.906 194.698 239.906 199.262 239.906 203.874C239.906 208.487 239.906 213.148 239.906 222.421C240.142 228.764 239.472 235.107 237.915 241.26C236.283 247.188 235.514 253.32 235.633 259.467C235.581 265.62 235.955 271.768 236.75 277.869C237.455 284.009 237.747 290.189 237.624 296.368V296.368Z" fill="black"/>
<path d="M254.229 296.368H251.802C251.802 287.045 251.802 282.336 252.093 277.772C252.384 273.208 252.093 268.547 252.093 259.273C252.093 249.999 252.093 245.387 252.093 240.774C252.093 236.162 252.093 231.501 252.093 222.227V185.376C252.093 176.151 251.656 171.489 251.316 166.974C250.976 162.459 250.491 157.652 250.491 148.33C250.491 139.008 250.491 134.298 250.83 129.783C251.17 125.267 251.17 120.509 251.17 111.284C251.17 102.059 251.17 97.3492 250.733 92.8338C250.296 88.3183 250.296 83.5602 250.296 74.238C250.296 64.9158 250.539 60.2548 250.83 55.6908C251.122 51.1268 251.316 46.4657 251.316 37.2407C251.241 30.9287 251.86 24.6276 253.161 18.4507C254.454 12.4539 255.057 6.32873 254.957 0.194824L257.337 0.194824C257.439 6.49189 256.82 12.7799 255.492 18.9362C254.199 24.9496 253.596 31.0907 253.695 37.2407C253.695 46.5143 253.695 51.2239 253.21 55.7879C252.724 60.3519 252.675 65.0129 252.675 74.238C252.675 83.463 252.675 88.1727 253.112 92.6881C253.549 97.2035 253.549 102.01 253.549 111.284C253.549 120.557 253.549 125.267 253.21 129.831C252.87 134.395 252.87 139.105 252.87 148.33C252.87 157.555 253.307 162.216 253.647 166.731C253.986 171.247 254.472 176.053 254.472 185.376V222.421C254.472 231.695 254.472 236.308 254.472 240.92C254.472 245.533 254.472 250.194 254.472 259.467C254.472 268.741 254.472 273.499 254.472 278.063C254.472 282.627 254.229 287.288 254.229 296.368Z" fill="black"/>
<path d="M272.242 296.368H269.815C269.754 290.086 270.274 283.812 271.368 277.626C272.487 271.574 273.008 265.427 272.922 259.273C272.996 253.138 272.492 247.009 271.417 240.969C270.298 234.786 269.777 228.51 269.863 222.227C269.863 212.954 269.863 208.341 269.863 203.68V185.376C269.863 176.053 270.203 171.344 270.543 166.78C270.883 162.216 271.223 157.555 271.223 148.33C271.223 139.105 270.931 134.395 270.64 129.88C270.349 125.364 270.057 120.557 270.057 111.284C270.002 105.055 270.326 98.8288 271.029 92.6395C271.668 86.5272 271.96 80.3834 271.902 74.238C271.973 68.0964 271.551 61.959 270.64 55.885C269.728 49.7133 269.306 43.479 269.378 37.2407C269.29 30.9177 269.975 24.6077 271.417 18.4507C272.876 12.4771 273.577 6.3436 273.505 0.194824L275.932 0.194824C276.041 6.51877 275.356 12.8314 273.893 18.9848C272.462 24.9617 271.793 31.0958 271.902 37.2407C271.832 43.3823 272.254 49.5196 273.165 55.5937C274.077 61.7654 274.499 67.9997 274.427 74.238C274.468 80.4651 274.16 86.6896 273.505 92.8823C272.803 98.9904 272.479 105.136 272.534 111.284C272.534 120.509 272.874 125.17 273.116 129.734C273.359 134.298 273.699 139.008 273.699 148.33C273.699 157.652 273.359 162.362 273.019 166.925C272.679 171.489 272.339 176.151 272.339 185.376V204.117C272.339 208.972 272.339 213.391 272.339 222.664C272.265 228.799 272.769 234.928 273.845 240.969C274.964 247.151 275.484 253.428 275.398 259.71C275.459 265.992 274.939 272.266 273.845 278.451C272.738 284.358 272.201 290.358 272.242 296.368V296.368Z" fill="black"/>
<path d="M292.683 296.368H290.255C290.255 287.094 290.255 282.433 290.255 277.82V259.467C290.255 250.242 290.255 245.533 289.916 240.969C289.576 236.405 289.576 231.695 289.576 222.421C289.649 216.31 289.39 210.2 288.799 204.117C288.41 199.504 287.973 194.795 287.973 185.473C287.927 179.243 288.268 173.016 288.993 166.828C289.695 160.72 290.019 154.575 289.964 148.427C289.964 139.153 289.964 134.444 290.207 129.88C290.45 125.316 290.207 120.606 290.207 111.381C290.33 105.227 289.528 99.0894 287.828 93.1736C286.091 87.0488 285.273 80.7001 285.4 74.3351C285.286 67.99 286.087 61.6616 287.779 55.5451C289.45 49.6243 290.236 43.4887 290.11 37.3378C290.218 31.1873 289.516 25.0493 288.022 19.0819C286.539 12.9003 285.886 6.54881 286.08 0.194824L288.507 0.194824C288.399 6.34536 289.101 12.4834 290.595 18.4507C292.151 24.5899 292.886 30.9083 292.78 37.2407C292.891 43.5856 292.09 49.9135 290.401 56.0307C288.73 61.9515 287.945 68.0871 288.071 74.238C287.962 80.3879 288.747 86.521 290.401 92.4453C292.156 98.5674 292.99 104.916 292.877 111.284C292.877 120.557 292.877 125.267 292.877 129.831C292.877 134.395 292.634 139.056 292.634 148.33C292.584 154.566 292.146 160.792 291.324 166.974C290.622 173.082 290.298 179.228 290.352 185.376C290.365 191.522 290.689 197.664 291.324 203.777C291.934 209.973 292.209 216.196 292.149 222.421C292.149 231.646 292.149 236.356 292.489 240.92C292.829 245.484 292.829 250.194 292.829 259.467V278.015C292.732 282.627 292.683 287.288 292.683 296.368Z" fill="black"/>
<path d="M307.346 296.368H304.918C304.918 287.094 304.918 282.481 304.918 277.82C304.918 273.159 304.918 268.547 304.918 259.273C304.918 249.999 305.21 245.241 305.501 240.677C305.792 236.113 306.084 231.452 306.084 222.227C306.084 213.002 306.084 208.341 306.084 203.729C306.084 199.116 306.084 194.455 306.084 185.181C306.084 175.908 306.084 171.15 306.569 166.586C307.055 162.022 307.103 157.361 307.103 148.136C307.103 138.91 307.103 134.249 307.103 129.588V111.284C307.103 102.059 307.103 97.3492 306.715 92.8338C306.326 88.3183 305.89 83.5602 305.89 74.238C305.89 64.9158 306.229 60.2062 306.569 55.6422C306.909 51.0783 307.298 46.4172 307.298 37.2407C307.298 28.0642 307.298 23.3546 307.298 18.742C307.298 14.1295 307.298 9.46843 307.298 0.194824H309.725C309.725 9.41987 309.725 14.081 309.725 18.6935C309.725 23.306 309.725 27.9671 309.725 37.2407C309.725 46.5143 309.337 51.2725 308.997 55.8364C308.657 60.4004 308.317 65.0615 308.317 74.238C308.317 83.4145 308.317 88.1727 308.706 92.7366C309.094 97.3006 309.094 102.01 309.094 111.284V129.783C309.094 134.638 309.094 139.056 309.094 148.33C309.094 157.603 308.851 162.362 308.56 166.925C308.269 171.489 308.074 176.151 308.074 185.376C308.074 194.601 308.074 199.262 308.074 203.874C308.074 208.487 308.074 213.148 308.074 222.421C308.074 231.695 307.783 236.453 307.492 241.017C307.2 245.581 306.909 250.242 306.909 259.467C306.909 268.692 306.909 273.353 306.909 278.015C306.909 282.676 307.346 287.288 307.346 296.368Z" fill="black"/>
<path d="M326.33 296.368H323.903C323.849 290.123 324.173 283.88 324.874 277.675C325.529 271.563 325.837 265.419 325.796 259.273C325.796 249.999 325.796 245.29 326.136 240.726C326.476 236.162 326.476 231.452 326.476 222.227C326.476 213.002 326.476 208.293 326.087 203.729C325.699 199.165 325.748 194.455 325.748 185.181C325.748 175.908 325.311 171.441 325.311 166.925C325.311 162.41 324.728 157.603 324.728 148.33C324.763 142.186 324.488 136.044 323.903 129.928C323.294 123.733 323.018 117.509 323.077 111.284C323.077 102.01 323.077 97.3977 323.077 92.7366C323.077 88.0756 323.077 83.5116 323.077 74.238C323.077 64.9644 322.737 60.3519 322.397 55.8364C322.058 51.321 321.669 46.5143 321.669 37.2407C321.562 30.8702 322.413 24.5198 324.194 18.4022C325.948 12.496 326.783 6.35502 326.67 0.194824H329.098C329.225 6.56655 328.374 12.9201 326.573 19.0333C324.852 24.9457 324.034 31.084 324.145 37.2407C324.145 46.4172 324.485 51.1268 324.874 55.6422C325.262 60.1577 325.553 64.9644 325.553 74.238C325.553 83.5116 325.553 88.1727 325.553 92.7852C325.553 97.3977 325.553 102.01 325.553 111.284C325.493 117.428 325.768 123.571 326.379 129.685C326.767 134.249 327.204 139.008 327.204 148.33C327.204 157.652 327.495 162.216 327.787 166.78C328.078 171.344 328.369 176.053 328.369 185.376C328.369 194.698 328.369 199.31 328.709 203.826C329.049 208.341 329.098 213.148 329.098 222.421C329.098 231.695 329.098 236.405 328.758 240.969C328.418 245.533 328.418 250.242 328.418 259.467C328.474 265.696 328.15 271.922 327.447 278.112C326.736 284.171 326.363 290.266 326.33 296.368V296.368Z" fill="black"/>
<path d="M346.528 296.368H344.101C344.205 290.209 343.652 284.056 342.45 278.015C341.239 271.843 340.67 265.562 340.75 259.273C340.699 253.04 341.072 246.811 341.867 240.629C342.637 234.526 342.994 228.378 342.935 222.227C342.935 213.002 342.547 208.341 342.207 203.777C341.867 199.213 341.479 194.504 341.479 185.181C341.399 178.928 341.805 172.679 342.693 166.489C343.534 160.408 343.923 154.274 343.858 148.136C343.908 141.999 343.535 135.867 342.741 129.783C341.879 123.59 341.473 117.342 341.527 111.09V74.238C341.527 64.9644 341.867 60.2062 342.207 55.6422C342.547 51.0783 342.838 46.4172 342.838 37.2407C342.838 28.0642 342.498 23.306 342.207 18.7906C341.916 14.2752 341.527 9.51698 341.527 0.194824H343.955C343.955 9.41987 344.295 14.081 344.635 18.5964C344.975 23.1118 345.266 27.9185 345.266 37.2407C345.266 46.5628 344.732 51.2725 344.732 55.8364C344.732 60.4004 344.101 65.0615 344.101 74.238V111.284C344.035 117.422 344.424 123.556 345.266 129.637C346.106 135.831 346.495 142.079 346.431 148.33C346.51 154.583 346.105 160.832 345.217 167.023C344.376 173.103 343.986 179.238 344.052 185.376C344.052 194.601 344.392 199.262 344.78 203.777C345.169 208.293 345.509 213.099 345.509 222.421C345.57 228.653 345.213 234.882 344.44 241.066C343.649 247.167 343.276 253.315 343.324 259.467C343.134 265.618 343.606 271.771 344.732 277.82C345.958 283.926 346.56 290.14 346.528 296.368V296.368Z" fill="black"/>
<path d="M359.88 296.368H357.453C357.382 290.088 357.886 283.814 358.958 277.626C360.008 271.566 360.495 265.423 360.414 259.273C360.449 253.129 360.173 246.988 359.589 240.872C358.958 234.677 358.666 228.453 358.715 222.227C358.715 212.954 358.715 208.195 359.103 203.631C359.492 199.068 359.298 194.406 359.298 185.376C359.363 179.238 358.974 173.103 358.132 167.023C357.317 160.826 356.928 154.58 356.967 148.33C356.967 139.056 356.967 134.444 356.967 129.783C356.967 125.121 356.967 120.557 356.967 111.284V74.238C357.02 67.922 357.802 61.6333 359.298 55.4966C360.61 49.502 361.229 43.3766 361.143 37.2407C361.143 27.9671 361.143 23.306 361.143 18.6935C361.143 14.081 361.143 9.41987 361.143 0.194824H364.153C364.153 9.46843 364.153 14.081 364.153 18.742C364.153 23.4031 364.153 27.9671 364.153 37.2407C364.243 43.5398 363.607 49.8283 362.259 55.9821C360.947 61.9767 360.328 68.1021 360.414 74.238V111.284C360.414 120.557 360.414 125.17 360.414 129.831C360.414 134.492 360.414 139.056 360.414 148.33C360.349 154.468 360.738 160.602 361.58 166.683C362.42 172.877 362.809 179.125 362.745 185.376C362.745 194.649 362.745 199.359 362.356 203.923C361.968 208.487 361.968 213.196 361.968 222.421C361.932 228.565 362.208 234.707 362.793 240.823C363.425 247.017 363.716 253.241 363.667 259.467C363.738 265.747 363.234 272.021 362.162 278.209C360.871 284.183 360.108 290.259 359.88 296.368V296.368Z" fill="black"/>
<path d="M382.36 296.368H379.933C380.035 290.212 379.4 284.067 378.039 278.063C376.667 271.896 376.015 265.59 376.097 259.273C376.004 252.953 376.672 246.644 378.088 240.483C379.449 234.496 380.085 228.366 379.981 222.227C379.981 212.954 379.981 208.341 379.981 203.68C379.981 199.019 379.981 194.455 379.981 185.181C379.981 175.908 379.981 171.247 379.593 166.683C379.204 162.119 379.204 157.409 379.204 148.136C379.204 138.862 379.204 134.152 379.496 129.588C379.787 125.024 379.496 120.315 379.496 111.09C379.496 101.865 379.496 97.2035 379.496 92.591C379.496 87.9785 379.496 83.3174 379.496 74.0438C379.496 64.7702 379.496 60.0606 379.884 55.4966C380.273 50.9326 380.224 46.2715 380.224 37.0465C380.224 27.8214 379.884 23.1118 379.593 18.5964C379.301 14.081 379.204 9.51698 379.204 0.194824H381.632C381.632 9.41987 381.972 14.081 382.263 18.5964C382.555 23.1118 382.943 27.9185 382.943 37.2407C382.943 46.5628 382.943 51.2239 382.603 55.7879C382.263 60.3519 382.215 65.0129 382.215 74.238C382.215 83.463 382.215 88.1241 382.215 92.7366C382.215 97.3492 382.215 102.01 382.215 111.284C382.215 120.557 382.215 125.267 382.215 129.831C382.215 134.395 381.923 139.056 381.923 148.33C381.923 157.603 381.923 162.264 382.312 166.78C382.7 171.295 382.7 176.102 382.7 185.376C382.7 194.649 382.7 199.262 382.7 203.923C382.7 208.584 382.7 213.148 382.7 222.421C382.779 228.739 382.127 235.044 380.758 241.211C379.318 247.188 378.633 253.321 378.719 259.467C378.616 265.623 379.252 271.768 380.612 277.772C381.929 283.879 382.516 290.122 382.36 296.368V296.368Z" fill="black"/>
<path d="M396.683 296.368H394.256C394.256 287.045 394.596 282.287 394.984 277.723C395.372 273.159 395.664 268.498 395.664 259.273C395.625 253.046 395.933 246.822 396.586 240.629C397.24 234.517 397.548 228.374 397.509 222.227C397.509 212.954 397.509 208.293 397.509 203.68C397.509 199.067 397.509 194.406 397.509 185.181C397.509 175.956 397.509 171.247 397.509 166.634C397.509 162.022 397.509 157.361 397.509 148.136C397.643 141.984 396.857 135.847 395.178 129.928C393.491 123.794 392.69 117.45 392.799 111.09C392.799 101.816 392.799 97.1064 392.799 92.5424C392.799 87.9785 393.042 83.3174 393.042 74.0438C393.042 64.7702 393.382 60.012 393.673 55.448C393.964 50.8841 394.304 46.223 394.304 37.0465C394.245 30.7987 394.602 24.554 395.372 18.3536C396.461 12.3535 397.142 6.28679 397.412 0.194824L399.839 0.194824C399.875 6.42587 399.519 12.653 398.771 18.8391C397.998 24.9416 397.641 31.0897 397.703 37.2407C397.703 46.5143 397.363 51.2725 397.072 55.8364C396.78 60.4004 396.441 65.0129 396.441 74.238C396.441 83.463 396.441 88.2212 396.198 92.7852C395.955 97.3492 396.198 102.059 396.198 111.284C395.938 117.416 396.592 123.552 398.14 129.491C399.831 135.624 400.632 141.969 400.519 148.33C400.519 157.603 400.519 162.216 400.519 166.877C400.519 171.538 400.519 176.102 400.519 185.376C400.519 194.649 400.519 199.262 400.519 203.923C400.519 208.584 400.519 213.148 400.519 222.421C400.56 228.649 400.252 234.873 399.597 241.066C398.764 247.167 398.278 253.311 398.14 259.467C398.14 268.789 397.8 273.548 397.46 278.112C397.12 282.676 396.683 287.337 396.683 296.368Z" fill="black"/>
<path d="M418.047 296.367H415.619C415.619 287.093 415.619 282.384 415.328 277.868C415.036 273.353 415.036 268.546 415.036 259.272C415.151 253.13 414.499 246.997 413.094 241.017C411.679 234.856 411.01 228.547 411.104 222.227C411.042 215.971 411.481 209.72 412.415 203.534C413.326 197.46 413.748 191.322 413.677 185.181C413.677 175.859 414.065 171.149 414.405 166.536C414.745 161.924 415.182 157.36 415.182 148.135C415.248 141.988 414.94 135.843 414.26 129.733C413.628 123.539 413.336 117.315 413.386 111.089C413.386 101.815 413.386 97.2029 413.386 92.5904C413.386 87.9779 413.386 83.3168 413.386 74.0432C413.431 67.9102 413.09 61.7804 412.366 55.6902C411.595 49.5061 411.238 43.2775 411.298 37.0459C411.298 27.7237 411.298 23.0141 411.638 18.4501C411.978 13.8861 412.026 9.22505 412.026 0H414.454C414.454 9.2736 414.454 13.9832 414.065 18.5472C413.677 23.1112 413.725 27.7723 413.725 37.0459C413.68 43.1789 414.021 49.3086 414.745 55.3989C415.516 61.5829 415.873 67.8115 415.813 74.0432C415.813 83.3168 415.813 87.9293 415.813 92.5418C415.813 97.1544 415.813 101.815 415.813 111.089C415.764 117.234 416.056 123.378 416.687 129.491C417.333 135.749 417.625 142.038 417.561 148.329C417.561 157.651 417.173 162.361 416.784 166.925C416.396 171.489 416.056 176.15 416.056 185.375C416.144 191.644 415.738 197.911 414.842 204.116C413.909 210.188 413.47 216.326 413.531 222.469C413.438 228.611 414.09 234.741 415.473 240.725C416.918 246.866 417.619 253.158 417.561 259.467C417.561 268.74 417.561 273.45 417.852 277.965C418.144 282.481 418.047 287.239 418.047 296.367Z" fill="black"/>
<path d="M434.749 296.368H432.127C432.183 290.219 431.859 284.074 431.156 277.966C430.433 271.762 430.092 265.519 430.136 259.273C430.097 253.046 430.405 246.822 431.059 240.629C431.754 234.584 432.111 228.506 432.127 222.421C432.127 213.196 431.787 208.487 431.496 203.971C431.205 199.456 430.913 194.649 430.913 185.376C430.963 179.223 430.59 173.075 429.796 166.974C429.001 160.792 428.628 154.563 428.68 148.33C428.574 141.975 429.342 135.637 430.962 129.491C432.527 123.552 433.262 117.425 433.147 111.284C433.147 102.059 433.147 97.3492 432.855 92.7852C432.564 88.2212 432.564 83.5116 432.564 74.238C432.602 68.0917 432.294 61.9481 431.641 55.8364C430.938 49.6635 430.614 43.4533 430.67 37.2407C430.609 31.009 430.966 24.7803 431.739 18.5964C432.477 12.4907 432.834 6.34492 432.807 0.194824L435.234 0.194824C435.281 6.42471 434.94 12.6515 434.215 18.8391C433.442 24.9416 433.085 31.0897 433.147 37.2407C433.092 43.3725 433.416 49.5019 434.118 55.5937C434.771 61.7865 435.079 68.0109 435.04 74.238C435.04 83.5116 435.04 88.1727 435.332 92.7366C435.623 97.3006 435.623 102.01 435.623 111.284C435.733 117.622 434.965 123.946 433.341 130.074C431.78 136.03 431.044 142.173 431.156 148.33C431.057 154.462 431.382 160.595 432.127 166.683C432.92 172.881 433.293 179.127 433.244 185.376C433.244 194.601 433.535 199.262 433.826 203.826C434.118 208.39 434.458 213.099 434.458 222.421C434.498 228.649 434.19 234.873 433.535 241.066C432.856 247.175 432.548 253.32 432.613 259.467C432.541 265.617 432.882 271.765 433.632 277.869C434.375 284.007 434.748 290.184 434.749 296.368V296.368Z" fill="black"/>
<path d="M451.548 296.367H449.121C449.17 290.205 448.878 284.046 448.247 277.917C447.591 271.724 447.283 265.5 447.324 259.272C447.324 250.047 447.324 245.338 447.324 240.774C447.324 236.21 447.324 231.5 447.324 222.227C447.324 212.953 447.761 208.195 448.15 203.582C448.538 198.97 448.926 194.406 448.926 185.181C448.926 175.956 449.315 171.149 449.703 166.536C450.092 161.924 450.48 157.36 450.48 148.135C450.48 138.91 450.14 134.2 449.849 129.685C449.558 125.169 449.266 120.363 449.266 111.089C449.266 101.815 449.558 97.0573 449.849 92.4933C450.14 87.9293 450.432 83.2682 450.432 74.0432C450.432 64.8181 450.432 60.1085 450.043 55.5931C449.655 51.0776 449.655 46.3195 449.655 37.0459C449.655 27.7723 449.655 23.1597 449.655 18.4987C449.655 13.8376 449.655 9.2736 449.655 0H451.548C451.548 9.2736 451.548 13.8861 451.548 18.4987C451.548 23.1112 451.548 27.7723 451.548 37.0459C451.548 46.3195 451.548 50.932 451.937 55.496C452.325 60.0599 452.325 64.7696 452.325 74.0432C452.325 83.3168 451.985 88.075 451.694 92.6389C451.403 97.2029 451.16 101.864 451.16 111.089C451.16 120.314 451.451 124.975 451.742 129.539C452.034 134.103 452.374 138.813 452.374 148.135C452.374 157.457 451.985 162.167 451.597 166.731C451.208 171.295 450.82 175.956 450.82 185.181C450.82 194.406 450.334 199.261 449.946 204.116C449.36 210.232 449.085 216.374 449.121 222.518C449.121 231.743 449.121 236.453 449.121 241.017C449.121 245.581 449.121 250.29 449.121 259.564C449.081 265.726 449.389 271.886 450.043 278.014C450.876 284.1 451.379 290.227 451.548 296.367V296.367Z" fill="black"/>
<path d="M470.387 296.368H467.959C467.909 290.141 468.2 283.917 468.833 277.723C469.417 271.591 469.692 265.433 469.658 259.273C469.777 253.119 468.975 246.982 467.279 241.066C465.52 234.945 464.686 228.595 464.803 222.227C464.79 216.037 465.229 209.855 466.114 203.729C466.978 197.65 467.384 191.515 467.328 185.376C467.328 176.102 467.328 171.344 467.862 166.78C468.396 162.216 468.347 157.555 468.347 148.33C468.398 142.184 468.107 136.041 467.473 129.928C466.82 123.735 466.512 117.511 466.551 111.284C466.551 102.059 466.211 97.3977 465.871 92.8338C465.531 88.2698 465.191 83.5602 465.191 74.238C465.125 68.0265 465.433 61.8167 466.114 55.6422C466.744 49.5292 467.036 43.386 466.988 37.2407C466.938 31.0146 467.229 24.7904 467.862 18.5964C468.415 12.4787 468.658 6.33703 468.59 0.194824L470.969 0.194824C470.969 9.51698 470.532 14.2266 470.144 18.8391C469.511 24.952 469.219 31.0954 469.27 37.2407C469.334 43.4521 469.026 49.6619 468.347 55.8364C467.717 61.9495 467.425 68.0927 467.473 74.238C467.473 83.463 467.813 88.1727 468.153 92.6881C468.493 97.2035 468.833 101.962 468.833 111.284C468.768 117.431 469.076 123.576 469.755 129.685C470.388 135.879 470.68 142.104 470.629 148.33C470.629 157.603 470.629 162.362 470.144 166.925C469.658 171.489 469.61 176.151 469.61 185.376C469.683 191.643 469.293 197.907 468.445 204.117C467.556 210.193 467.15 216.33 467.231 222.47C467.112 228.624 467.914 234.761 469.61 240.677C471.365 246.799 472.199 253.148 472.086 259.516C472.086 268.838 471.649 273.596 471.261 278.16C470.638 284.209 470.346 290.287 470.387 296.368Z" fill="black"/>
<path d="M487.623 296.368H485.195C485.195 287.094 484.952 282.433 484.758 277.869C484.564 273.305 484.321 268.595 484.321 259.273C484.321 249.951 484.661 245.241 484.952 240.677C485.244 236.113 485.584 231.452 485.584 222.227C485.645 216.163 485.191 210.104 484.224 204.117C483.221 197.938 482.75 191.684 482.816 185.424C482.696 179.088 483.447 172.766 485.05 166.634C486.589 160.674 487.308 154.532 487.186 148.378C487.295 142.23 486.709 136.09 485.438 130.074C484.158 123.911 483.556 117.626 483.642 111.332C483.642 102.107 483.642 97.3977 483.642 92.8338C483.642 88.2698 483.642 83.5602 483.642 74.2865C483.642 65.0129 483.642 60.449 483.642 55.7879C483.642 51.1268 483.642 46.5143 483.642 37.2892C483.551 30.9387 484.302 24.604 485.875 18.4507C487.262 12.4708 487.785 6.32309 487.429 0.194824L489.856 0.194824C489.966 6.53344 489.198 12.8568 487.574 18.9848C486.062 24.9481 485.376 31.0907 485.535 37.2407C485.535 46.4657 485.535 51.0783 485.535 55.7393C485.535 60.4004 485.535 64.9644 485.535 74.238C485.535 83.5116 485.535 88.1727 485.535 92.7366C485.535 97.3006 485.535 102.01 485.535 111.284C485.453 117.431 486.04 123.568 487.283 129.588C488.563 135.751 489.165 142.036 489.079 148.33C489.2 154.666 488.448 160.988 486.846 167.12C485.331 173.084 484.612 179.223 484.71 185.376C484.644 191.523 485.115 197.664 486.118 203.729C487.101 209.91 487.556 216.163 487.477 222.421C487.477 231.744 487.186 236.453 486.846 241.017C486.506 245.581 486.215 250.242 486.215 259.467C486.215 268.692 486.215 273.402 486.652 277.966C487.089 282.53 487.623 287.24 487.623 296.368Z" fill="black"/>
</svg>
