<svg width="608" height="148" viewBox="0 0 608 148" fill="none" xmlns="http://www.w3.org/2000/svg">
<circle r="72.527" transform="matrix(-0.9998 -0.0199915 -0.0199915 0.9998 415.786 74.0381)" fill="white"/>
<path d="M385.325 21.363L354.941 73.991L385.325 126.619H446.095L476.48 73.991L446.095 21.363L385.325 21.363Z" fill="#36323D"/>
<path d="M378.446 52.476L378.446 95.5072L415.712 117.023L452.978 95.5072L452.978 52.476L415.712 30.9605L378.446 52.476Z" fill="white"/>
<path d="M405.716 91.3043L425.707 91.3043L435.703 73.9917L425.707 56.6791L405.716 56.6791L395.721 73.9917L405.716 91.3043Z" fill="#36323D"/>
<path d="M16.0767 50.3654C16.0767 48.0213 16.564 45.8237 17.5387 43.7726C18.6108 41.7215 20.0728 39.9634 21.9247 38.4983C23.874 37.0332 26.1645 35.8611 28.7961 34.9821C31.5251 34.103 34.5466 33.6635 37.8604 33.6635C43.1236 33.6635 48.1432 34.5426 52.919 36.3007C57.7923 38.0588 62.6169 40.8912 67.3928 44.7981L74.118 35.8611C68.8548 31.6613 63.3966 28.5358 57.7436 26.4846C52.188 24.3359 45.6578 23.2615 38.1528 23.2615C33.2795 23.2615 28.7961 23.994 24.7025 25.4591C20.6089 26.8265 17.0514 28.7799 14.0299 31.3194C11.0085 33.7612 8.66926 36.6913 7.01233 40.1099C5.3554 43.5284 4.52694 47.2888 4.52694 51.391C4.52694 55.6885 5.2092 59.4001 6.57373 62.5256C7.93826 65.6511 10.0338 68.3859 12.8603 70.73C15.6868 73.0741 19.2444 75.0764 23.5329 76.7368C27.9189 78.3972 33.0359 79.8623 38.8838 81.132C44.2445 82.3041 48.6305 83.525 52.0418 84.7947C55.5506 86.0645 58.2797 87.4807 60.229 89.0435C62.1783 90.6062 63.5428 92.3643 64.3226 94.3177C65.1023 96.1735 65.4922 98.3223 65.4922 100.764C65.4922 106.038 63.3966 110.287 59.2056 113.51C55.112 116.733 49.6051 118.345 42.685 118.345C35.57 118.345 29.2834 117.173 23.8253 114.829C18.3672 112.387 12.9578 108.724 7.59713 103.841L0.43335 112.338C6.57373 117.905 13.0065 122.057 19.7317 124.791C26.5543 127.429 34.0593 128.747 42.2464 128.747C47.3147 128.747 51.9931 128.063 56.2816 126.696C60.5701 125.329 64.2251 123.375 67.2466 120.836C70.3655 118.296 72.8022 115.22 74.5565 111.606C76.3109 107.992 77.1881 103.987 77.1881 99.592C77.1881 91.6806 74.4591 85.4784 69.001 80.9855C63.6403 76.4926 55.2582 72.9764 43.8546 70.437C38.2016 69.2649 33.5719 68.044 29.9657 66.7743C26.3594 65.4069 23.5329 63.9418 21.4861 62.3791C19.4393 60.7186 18.026 58.9117 17.2463 56.9583C16.4666 55.0048 16.0767 52.8072 16.0767 50.3654Z" fill="white"/>
<path d="M177.283 57.3978C177.283 52.3188 176.358 47.7771 174.506 43.7726C172.751 39.6703 170.168 36.2518 166.757 33.517C163.443 30.6845 159.398 28.5358 154.623 27.0707C149.944 25.5079 144.73 24.7266 138.979 24.7266H100.675V127.282H112.225V91.0946H137.079C142.537 91.0946 147.702 90.4109 152.576 89.0435C157.449 87.5784 161.689 85.4296 165.295 82.5971C168.999 79.7646 171.923 76.2485 174.067 72.0486C176.211 67.8487 177.283 62.9651 177.283 57.3978ZM165.587 57.8373C165.587 61.2558 164.905 64.3813 163.541 67.2138C162.274 69.9486 160.373 72.3416 157.839 74.3927C155.402 76.3461 152.43 77.86 148.921 78.9344C145.509 80.0088 141.708 80.546 137.517 80.546H112.225V35.4216H138.102C146.387 35.4216 153.014 37.3262 157.985 41.1354C163.053 44.847 165.587 50.4142 165.587 57.8373Z" fill="white"/>
<path d="M282.981 127.282L251.548 85.3808C255.544 84.6971 259.248 83.525 262.659 81.8646C266.071 80.2042 268.995 78.153 271.431 75.7113C273.966 73.1718 275.915 70.2416 277.279 66.9208C278.644 63.5023 279.326 59.6442 279.326 55.3467C279.326 50.7561 278.449 46.605 276.695 42.8935C274.94 39.0843 272.455 35.8611 269.238 33.224C266.022 30.4892 262.123 28.3892 257.542 26.9242C253.059 25.4591 247.991 24.7266 242.338 24.7266H198.332V127.282H209.881V87.4319H239.121L268.8 127.282H282.981ZM267.63 55.7862C267.63 59.107 266.948 62.086 265.583 64.7232C264.316 67.3603 262.513 69.6068 260.174 71.4625C257.835 73.2206 255.057 74.588 251.841 75.5648C248.624 76.5415 245.115 77.0298 241.314 77.0298H209.881V35.4216H241.461C249.745 35.4216 256.178 37.2285 260.759 40.8424C265.34 44.3586 267.63 49.3399 267.63 55.7862Z" fill="white"/>
<path d="M305.007 24.7266V127.282H316.557V24.7266H305.007Z" fill="white"/>
<path d="M607.117 111.313L599.514 103.841C594.641 108.529 589.67 112.192 584.602 114.829C579.534 117.368 573.491 118.638 566.473 118.638C560.82 118.638 555.557 117.564 550.684 115.415C545.908 113.168 541.717 110.141 538.11 106.331C534.602 102.522 531.824 98.0293 529.777 92.8527C527.828 87.6761 526.853 82.1088 526.853 76.1508C526.853 70.1928 527.828 64.6743 529.777 59.5954C531.824 54.4188 534.602 49.9259 538.11 46.1167C541.717 42.3075 545.908 39.3285 550.684 37.1797C555.557 35.0309 560.82 33.9565 566.473 33.9565C573.491 33.9565 579.485 35.2751 584.456 37.9122C589.524 40.5494 594.251 43.9191 598.637 48.0213L606.532 39.5238C603.998 37.082 601.366 34.8844 598.637 32.931C595.908 30.8799 592.935 29.1706 589.719 27.8032C586.502 26.3381 582.994 25.2149 579.192 24.4335C575.489 23.6522 571.298 23.2615 566.619 23.2615C559.114 23.2615 552.194 24.6777 545.859 27.5102C539.524 30.245 534.065 34.0542 529.485 38.9378C524.904 43.7237 521.297 49.3399 518.666 55.7862C516.132 62.2325 514.865 69.1184 514.865 76.4438C514.865 83.8669 516.132 90.8016 518.666 97.2479C521.297 103.694 524.904 109.31 529.485 114.096C534.065 118.785 539.475 122.496 545.713 125.231C551.951 127.966 558.773 129.333 566.181 129.333C570.859 129.333 575.099 128.894 578.9 128.015C582.701 127.135 586.259 125.915 589.573 124.352C592.886 122.789 595.957 120.933 598.783 118.785C601.707 116.538 604.485 114.047 607.117 111.313Z" fill="white"/>
</svg>
