<svg width="15" height="16" viewBox="0 0 15 16" fill="none" xmlns="http://www.w3.org/2000/svg">
<path d="M13.9998 3.15155L0.666504 3.15155" stroke="white" stroke-linecap="round" stroke-linejoin="round"/>
<path d="M5.51514 6.7879V11.6364" stroke="white" stroke-linecap="round" stroke-linejoin="round"/>
<path d="M9.15137 6.7879V11.6364" stroke="white" stroke-linecap="round" stroke-linejoin="round"/>
<path d="M12.788 3.15155V14.6667C12.788 14.8274 12.7241 14.9816 12.6105 15.0953C12.4968 15.2089 12.3427 15.2728 12.1819 15.2728H2.48497C2.32423 15.2728 2.17008 15.2089 2.05642 15.0953C1.94276 14.9816 1.87891 14.8274 1.87891 14.6667V3.15155" stroke="white" stroke-linecap="round" stroke-linejoin="round"/>
<path d="M10.3638 3.15154V1.93942C10.3638 1.61794 10.2361 1.30963 10.0088 1.08232C9.78149 0.855 9.47318 0.727295 9.15171 0.727295H5.51534C5.19387 0.727295 4.88556 0.855 4.65824 1.08232C4.43093 1.30963 4.30322 1.61794 4.30322 1.93942V3.15154" stroke="white" stroke-linecap="round" stroke-linejoin="round"/>
</svg>
