<svg width="28" height="28" viewBox="0 0 28 28" fill="none" xmlns="http://www.w3.org/2000/svg">
<path d="M9.42619 0.766325C6.01707 1.9328 3.11217 4.484 1.49415 7.71251C0.92973 8.8263 0.523344 10.0078 0.274998 11.2345C-0.342106 14.2749 0.0868565 17.5184 1.48663 20.2879C2.39723 22.094 3.7067 23.7045 5.28708 24.9613C6.78469 26.1504 8.52312 27.0384 10.3744 27.5276C12.7074 28.1522 15.1908 28.1371 17.5389 27.6028C19.6611 27.1136 21.6704 26.0977 23.2734 24.6227C24.9667 23.0648 26.1783 21.0179 26.818 18.8129C27.5179 16.4122 27.6082 13.8459 27.1717 11.3775C22.7842 11.3775 18.3892 11.3775 14.0018 11.3775C14.0018 13.1987 14.0018 15.0199 14.0018 16.8411C16.5455 16.8411 19.0891 16.8411 21.6328 16.8411C21.3393 18.5871 20.3008 20.1825 18.8333 21.1684C17.9076 21.793 16.8465 22.1919 15.7477 22.3875C14.649 22.5757 13.5051 22.5983 12.4064 22.38C11.285 22.1542 10.2239 21.6877 9.29073 21.0329C7.80065 19.9869 6.66428 18.4591 6.0848 16.7358C5.49028 14.9823 5.48275 13.0331 6.0848 11.2872C6.50624 10.053 7.1986 8.91661 8.11673 7.98343C9.24558 6.82448 10.7131 5.99666 12.301 5.658C13.6556 5.37203 15.0855 5.42471 16.41 5.82357C17.5389 6.16222 18.5774 6.78685 19.4278 7.59962C20.2857 6.7417 21.1436 5.88377 22.0016 5.02585C22.4531 4.56678 22.9272 4.12277 23.3637 3.64865C22.0618 2.44455 20.5265 1.47374 18.8558 0.856632C15.8456 -0.257165 12.459 -0.279742 9.42619 0.766325Z" fill="white"/>
<path d="M9.42423 0.766219C12.4495 -0.279847 15.8436 -0.25727 18.8539 0.849001C20.5246 1.4661 22.0523 2.42939 23.3617 3.64102C22.9253 4.11514 22.4511 4.55915 21.9996 5.01821C21.1417 5.87614 20.2838 6.73406 19.4258 7.59199C18.5754 6.77922 17.5369 6.16211 16.408 5.81593C15.0835 5.41707 13.6537 5.35687 12.299 5.65037C10.7186 5.98902 9.25114 6.81685 8.11477 7.9758C7.19664 8.90145 6.50428 10.0454 6.08284 11.2796C4.55513 10.0905 3.02742 8.90898 1.49219 7.71992C3.1102 4.48389 6.01511 1.9327 9.42423 0.766219Z" fill="#EA4335"/>
<path d="M0.282413 11.2268C0.530759 10.0077 0.937145 8.81863 1.50157 7.70483C3.02928 8.89389 4.55698 10.0754 6.09222 11.2645C5.49017 13.0179 5.49017 14.9671 6.09222 16.713C4.56451 17.9021 3.0368 19.0912 1.50909 20.2727C0.0942714 17.5108 -0.334691 14.2672 0.282413 11.2268Z" fill="#FBBC05"/>
<path d="M14.0017 11.3699C18.3891 11.3699 22.7841 11.3699 27.1716 11.3699C27.6081 13.8308 27.5102 16.397 26.8179 18.8052C26.1782 21.0102 24.9666 23.0572 23.2733 24.615C21.7907 23.4636 20.3082 22.3122 18.8256 21.1608C20.2931 20.1749 21.3317 18.5795 21.6252 16.8335C19.0815 16.8335 16.5378 16.8335 13.9941 16.8335C14.0017 15.0123 14.0017 13.1911 14.0017 11.3699Z" fill="#4285F4"/>
<path d="M1.49219 20.2801C3.0199 19.0986 4.5476 17.9095 6.07531 16.7205C6.66231 18.4438 7.79116 19.9715 9.28124 21.0176C10.2144 21.6723 11.2831 22.1389 12.3969 22.3647C13.4956 22.5905 14.632 22.5604 15.7383 22.3722C16.837 22.1766 17.8981 21.7777 18.8238 21.1531C20.3063 22.3045 21.7889 23.4559 23.2714 24.6074C21.6685 26.0899 19.6591 27.0984 17.5369 27.5875C15.1889 28.1218 12.7054 28.1369 10.3725 27.5123C8.52115 27.0231 6.78272 26.1426 5.28512 24.946C3.71226 23.6968 2.40279 22.0863 1.49219 20.2801Z" fill="#34A853"/>
</svg>
