<svg width="1920" height="400" viewBox="0 0 1920 400" fill="none" xmlns="http://www.w3.org/2000/svg">
<path d="M1920 400H1129.43L1128.96 399.526C1122.85 393.399 1114.71 389.971 1106.03 389.873C1104.2 389.847 1102.3 390 1100.27 390.334L1098.77 390.579L1098.43 389.104C1094.17 370.679 1077.97 357.652 1059.04 357.425C1052.78 357.339 1046.74 358.672 1041.06 361.361L1039.72 361.995L1038.97 360.713C1034.7 353.378 1026.8 348.838 1018.34 348.838L1018.2 348.839C1015.47 348.862 1012.75 349.367 1010.13 350.335L1009.06 350.729L1008.33 349.865C990.004 328.258 979.908 300.73 979.908 272.351V62.8839H1007.95L963.813 5.78241L919.679 62.8839H946.817V277.622C946.817 303.527 937.535 328.605 920.683 348.236L919.946 349.093L918.886 348.696C916.264 347.715 913.547 347.199 910.806 347.163C901.412 346.984 892.844 352.475 888.886 360.969L888.216 362.41L886.764 361.765C881.495 359.427 875.887 358.241 870.094 358.241L869.917 358.243C851 358.368 834.727 371.301 830.349 389.69L829.998 391.163L828.504 390.91C826.464 390.56 824.594 390.397 822.755 390.408C814.28 390.469 806.254 393.717 800.158 399.55L799.69 400H0V396.773H798.399C805.032 390.648 813.648 387.247 822.733 387.181C824.266 387.173 825.895 387.277 827.573 387.504C832.786 368.431 849.983 355.149 869.9 355.016C875.735 355.001 881.329 356.066 886.655 358.214C891.407 349.377 900.676 343.826 910.848 343.936C913.588 343.972 916.305 344.428 918.941 345.295C934.84 326.375 943.585 302.39 943.585 277.622V66.1108H913.103L963.813 0.5L1014.52 66.1108H983.141V272.351C983.141 299.597 992.703 326.038 1010.09 346.934C1012.73 346.08 1015.44 345.635 1018.18 345.612L1018.33 345.611C1027.46 345.611 1036 350.256 1040.99 357.848C1046.74 355.348 1052.88 354.104 1059.08 354.198C1079.01 354.437 1096.13 367.821 1101.22 386.933C1102.9 386.718 1104.51 386.634 1106.07 386.646C1115.37 386.75 1124.11 390.342 1130.77 396.773H1920V400Z" fill="white"/>
</svg>
