<svg width="350" height="470" viewBox="0 0 350 470" fill="none" xmlns="http://www.w3.org/2000/svg">
<path d="M460.917 61.0319C481.601 77.1594 497.551 98.5559 517.523 115.502C537.496 132.449 560.957 144.802 574.237 166.733C586.341 186.705 587.623 211.199 588.691 234.554C590.59 277.347 592.453 320.14 594.28 362.933C595.669 394.476 595.384 430.291 572.421 451.937C557.967 465.608 536.819 470.521 517.025 469.453C497.23 468.385 477.863 461.941 459.101 455.604L309.575 405.299C294.729 400.314 279.492 395.117 267.387 385.113C237.802 360.761 235.737 317.007 236.022 278.7C236.52 217.18 237.031 155.649 237.553 94.1057C237.802 63.4528 240.365 28.0293 265.215 10.0505C283.016 -2.80161 307.688 -2.30318 328.052 5.77836C349.555 14.2871 365.861 36.7161 388.254 41.1307C416.095 46.7201 435.889 41.5223 460.917 61.0319Z" fill="#E23B00"/>
<g opacity="0.6">
<path d="M338.698 225.954L340.696 225.954C340.649 231.014 340.916 236.072 341.495 241.099C342.072 246.206 342.338 251.343 342.294 256.483C342.294 264.115 342.054 268.031 341.854 271.787C341.655 275.543 341.415 279.379 341.415 286.971C341.348 291.979 341.844 296.978 342.893 301.876C343.946 306.948 344.442 312.12 344.372 317.3L344.372 347.788C344.372 355.46 344.132 359.336 343.892 363.092C343.653 366.848 343.413 370.684 343.413 378.276C343.499 383.463 342.962 388.642 341.815 393.7C340.697 398.642 340.174 403.699 340.256 408.765C340.225 413.823 340.478 418.879 341.015 423.909C341.594 428.989 341.861 434.1 341.815 439.213C341.751 444.277 342.059 449.339 342.734 454.358C343.427 459.442 343.747 464.571 343.693 469.702L341.695 469.702C341.749 464.65 341.428 459.602 340.736 454.597C340.082 449.496 339.775 444.356 339.817 439.213C339.903 434.171 339.702 429.128 339.217 424.109C338.64 419.015 338.373 413.891 338.418 408.765C338.35 403.566 338.887 398.376 340.016 393.301C341.137 388.373 341.66 383.329 341.575 378.276C341.575 370.644 341.815 366.728 342.054 362.972C342.294 359.216 342.534 355.38 342.534 347.788L342.534 317.3C342.613 312.238 342.117 307.185 341.055 302.235C339.881 297.176 339.265 292.004 339.217 286.811C339.217 279.179 339.217 275.263 339.657 271.507C340.096 267.751 340.096 263.915 340.096 256.323C340.143 251.263 339.876 246.205 339.297 241.178C338.794 236.12 338.593 231.036 338.698 225.954Z" fill="white"/>
<path d="M323.034 225.954L325.032 225.954C325.032 233.546 325.352 237.422 325.671 241.138C325.991 244.855 326.271 248.811 326.271 256.483C326.271 264.155 326.51 267.951 326.71 271.667C326.91 275.383 327.11 279.339 327.11 286.971C327.071 291.953 327.364 296.933 327.989 301.876C328.643 306.963 328.95 312.09 328.908 317.22C328.908 324.852 328.908 328.688 328.708 332.484C328.508 336.28 328.708 340.116 328.708 347.708C328.708 355.3 328.708 359.136 328.708 362.932C328.708 366.728 328.708 370.564 328.708 378.197C328.708 385.829 328.708 389.705 328.708 393.461C328.708 397.217 328.508 401.053 328.508 408.685C328.594 413.872 328.058 419.05 326.91 424.109C325.83 429.042 325.321 434.084 325.392 439.133C325.329 444.191 325.704 449.245 326.51 454.238C327.335 459.349 327.696 464.525 327.589 469.702L325.591 469.702C325.654 464.644 325.279 459.591 324.472 454.597C323.618 449.515 323.204 444.367 323.234 439.213C323.16 434.029 323.683 428.854 324.792 423.789C325.91 418.861 326.433 413.817 326.351 408.765C326.351 401.133 326.351 397.257 326.55 393.501C326.75 389.745 326.55 385.869 326.55 378.276C326.55 370.684 326.55 366.848 326.55 363.052C326.55 359.256 326.55 355.42 326.55 347.788C326.55 340.156 326.55 336.36 326.75 332.524C326.95 328.688 326.75 324.932 326.75 317.3C326.792 312.25 326.485 307.203 325.831 302.195C325.197 297.092 324.903 291.953 324.952 286.811C324.952 279.219 324.952 275.343 324.552 271.627C324.153 267.911 324.113 263.955 324.113 256.323C324.113 248.691 323.793 244.855 323.513 241.138C323.234 237.422 323.034 233.466 323.034 225.954Z" fill="white"/>
<path d="M309.608 225.954L311.606 225.954C311.56 231.014 311.961 236.069 312.805 241.059C313.687 246.151 314.102 251.314 314.043 256.483C314.043 264.115 313.804 268.031 313.564 271.787C313.324 275.543 313.084 279.379 313.084 286.971C313.084 294.563 312.765 298.519 312.445 302.315C311.942 307.347 311.716 312.403 311.766 317.459C311.707 322.514 312.055 327.565 312.805 332.564C313.572 337.655 313.932 342.799 313.883 347.948C313.883 355.62 313.524 359.536 313.204 363.292C312.683 368.323 312.443 373.379 312.485 378.436C312.422 383.489 312.864 388.536 313.804 393.501C314.797 398.527 315.279 403.641 315.242 408.765C315.326 413.947 314.817 419.122 313.724 424.189C312.644 429.122 312.134 434.164 312.205 439.213C312.14 444.266 312.582 449.313 313.524 454.278C314.474 459.362 314.903 464.53 314.803 469.702L312.805 469.702C312.865 464.649 312.424 459.603 311.486 454.637C310.528 449.553 310.073 444.387 310.127 439.213C310.053 434.029 310.576 428.854 311.686 423.789C312.748 418.854 313.244 413.813 313.164 408.765C313.224 403.739 312.782 398.719 311.846 393.78C310.888 388.696 310.433 383.53 310.487 378.356C310.457 373.205 310.71 368.056 311.246 362.932C311.728 357.899 311.955 352.844 311.925 347.788C311.984 342.734 311.636 337.683 310.887 332.684C310.118 327.593 309.757 322.448 309.808 317.3C309.808 309.628 310.167 305.752 310.487 301.955C310.807 298.159 311.246 294.403 311.246 286.811C311.246 279.219 311.486 275.263 311.726 271.507C311.965 267.751 312.205 263.915 312.205 256.323C312.272 251.262 311.87 246.206 311.006 241.218C310.08 236.183 309.612 231.074 309.608 225.954V225.954Z" fill="white"/>
<path d="M294.783 225.954L296.781 225.954C296.731 231.01 297.092 236.061 297.86 241.059C298.667 246.159 299.041 251.319 298.979 256.483C299.029 261.611 298.736 266.737 298.1 271.827C297.504 276.852 297.224 281.91 297.261 286.971C297.21 291.955 297.518 296.936 298.18 301.876C298.891 306.986 299.252 312.14 299.259 317.3C299.259 324.892 299.259 328.768 299.458 332.524C299.658 336.28 299.458 340.156 299.458 347.788C299.529 352.968 299.033 358.14 297.98 363.212C296.974 368.169 296.505 373.219 296.581 378.276C296.581 385.869 296.581 389.745 296.821 393.501C297.061 397.257 297.061 401.133 297.061 408.765C296.996 413.813 297.397 418.855 298.26 423.829C299.141 428.909 299.555 434.058 299.498 439.213C299.545 444.359 299.211 449.501 298.499 454.597C297.802 459.601 297.481 464.65 297.54 469.702L295.543 469.702C295.498 464.556 295.832 459.414 296.541 454.318C297.275 449.317 297.609 444.267 297.54 439.213C297.605 434.166 297.204 429.123 296.342 424.149C295.494 419.067 295.133 413.916 295.263 408.765C295.263 401.133 295.263 397.297 295.023 393.541C294.783 389.785 294.783 385.909 294.783 378.276C294.706 373.098 295.188 367.927 296.222 362.852C297.268 357.901 297.75 352.848 297.66 347.788C297.66 340.196 297.66 336.32 297.66 332.564C297.66 328.808 297.461 324.932 297.46 317.3C297.502 312.25 297.195 307.203 296.541 302.195C295.748 297.104 295.321 291.963 295.263 286.811C295.225 281.684 295.505 276.559 296.102 271.467C296.735 266.444 297.029 261.385 296.981 256.323C297.031 251.267 296.67 246.216 295.902 241.218C295.104 236.17 294.73 231.065 294.783 225.954V225.954Z" fill="white"/>
<path d="M279.719 225.954L281.717 225.954C281.717 233.546 282.036 237.422 282.356 241.138C282.676 244.855 282.995 248.811 282.995 256.483C282.995 264.155 282.995 267.991 282.716 271.747C282.436 275.503 282.436 279.379 282.436 286.971C282.436 294.563 282.716 298.399 282.995 302.155C283.275 305.911 283.515 309.787 283.515 317.459C283.573 322.628 283.159 327.791 282.276 332.883C281.371 337.852 280.956 342.898 281.037 347.948C280.963 353.007 281.351 358.063 282.196 363.052C282.986 368.087 283.347 373.18 283.275 378.276C283.275 385.789 283.275 389.785 283.275 393.541C283.275 397.297 283.275 401.133 283.275 408.765C283.275 416.397 283.275 420.233 283.555 423.949C283.835 427.665 283.835 431.581 283.835 439.213C283.835 446.845 283.835 450.721 283.635 454.478C283.435 458.234 283.275 462.11 283.275 469.702L281.277 469.702C281.277 462.07 281.277 458.194 281.277 454.438C281.277 450.681 281.477 446.845 281.477 439.213C281.477 431.581 281.477 427.745 281.197 424.029C280.918 420.313 280.918 416.397 280.918 408.765C280.918 401.133 280.918 397.297 280.918 393.501C280.918 389.705 280.918 385.909 280.918 378.276C280.972 373.218 280.584 368.164 279.759 363.172C278.931 358.087 278.543 352.94 278.6 347.788C278.539 342.633 278.954 337.483 279.839 332.404C280.741 327.421 281.156 322.363 281.077 317.3C281.077 309.707 280.798 305.871 280.558 302.115C280.318 298.359 279.999 294.483 279.999 286.811C279.999 279.139 279.999 275.303 280.278 271.547C280.558 267.791 280.558 263.915 280.558 256.323C280.558 248.731 280.238 244.855 279.919 241.138C279.599 237.422 279.719 233.466 279.719 225.954Z" fill="white"/>
<path d="M265.454 225.955L267.292 225.955C267.292 233.627 267.012 237.543 266.732 241.299C266.453 245.055 266.173 248.891 266.173 256.483C266.1 261.538 266.555 266.587 267.531 271.547C268.489 276.632 268.944 281.798 268.89 286.971C268.947 292.123 268.559 297.27 267.731 302.356C266.945 307.351 266.571 312.403 266.612 317.46C266.612 325.052 266.932 328.888 267.252 332.644C267.571 336.4 267.891 340.276 267.891 347.948C267.862 353.005 268.089 358.059 268.57 363.093C269.09 368.19 269.33 373.313 269.29 378.437C269.397 383.564 269.13 388.692 268.49 393.781C267.837 398.802 267.53 403.862 267.571 408.925C267.489 413.978 268.012 419.022 269.13 423.95C270.239 429.014 270.762 434.19 270.688 439.374C270.688 447.046 270.688 450.922 270.408 454.678C270.129 458.434 270.089 462.27 270.089 469.862L268.091 469.862C268.091 462.23 268.091 458.354 268.411 454.598C268.73 450.842 268.69 447.006 268.69 439.374C268.834 434.274 268.364 429.177 267.292 424.189C266.144 419.13 265.607 413.952 265.693 408.765C265.64 403.621 265.961 398.479 266.652 393.381C267.212 388.367 267.426 383.32 267.292 378.277C267.321 373.221 267.094 368.166 266.612 363.133C266.092 358.035 265.852 352.912 265.893 347.788C265.893 340.196 265.573 336.36 265.254 332.644C264.934 328.928 264.614 324.972 264.614 317.3C264.61 312.13 265.052 306.97 265.933 301.876C266.72 296.88 267.094 291.829 267.052 286.772C267.125 281.717 266.669 276.668 265.693 271.707C264.736 266.623 264.281 261.457 264.335 256.283C264.335 248.611 264.614 244.735 264.894 240.939C265.174 237.143 265.454 233.387 265.454 225.955Z" fill="white"/>
<path d="M253.306 225.954L255.304 225.954C255.362 231.123 254.948 236.285 254.065 241.378C253.201 246.365 252.8 251.422 252.867 256.483C252.867 264.075 252.867 267.951 253.266 271.667C253.666 275.383 253.626 279.339 253.626 286.971C253.626 294.603 253.346 298.519 253.066 302.275C252.787 306.031 252.467 309.867 252.467 317.459C252.467 325.052 252.467 328.968 252.467 332.724C252.467 336.48 252.467 340.356 252.467 347.948C252.425 353.005 252.665 358.061 253.186 363.092C253.745 368.187 253.998 373.311 253.946 378.436C253.894 383.568 253.533 388.692 252.867 393.78C252.327 398.81 252.074 403.866 252.107 408.925C252.068 413.982 252.308 419.038 252.827 424.069C253.386 429.151 253.639 434.261 253.586 439.373C253.548 444.434 253.828 449.492 254.425 454.518C255.049 459.554 255.343 464.627 255.304 469.702L253.306 469.702C253.35 464.642 253.083 459.584 252.507 454.557C251.871 449.468 251.577 444.342 251.628 439.213C251.668 434.156 251.427 429.1 250.909 424.069C250.349 418.988 250.095 413.877 250.15 408.765C250.116 403.64 250.369 398.517 250.909 393.421C251.468 388.393 251.721 383.335 251.668 378.276C251.709 373.219 251.468 368.163 250.949 363.132C250.389 358.037 250.135 352.913 250.189 347.788C250.189 340.156 250.189 336.28 250.189 332.524C250.189 328.768 250.189 324.932 250.189 317.3C250.189 309.668 250.789 305.871 251.069 301.876C251.348 297.88 251.628 294.283 251.628 286.691C251.628 279.099 251.628 275.223 251.268 271.507C250.909 267.791 250.869 263.835 250.869 256.203C250.81 251.035 251.225 245.872 252.107 240.779C252.954 235.884 253.356 230.922 253.306 225.954Z" fill="white"/>
<path d="M237.762 225.954L239.76 225.954C239.76 233.586 239.76 237.422 239.76 241.258C239.76 245.094 239.76 248.85 239.76 256.483C239.76 264.115 239.76 267.951 240 271.707C240.24 275.463 240.28 279.339 240.28 286.971C240.28 294.603 240.28 298.479 240.04 302.235C239.8 305.991 239.321 309.867 239.321 317.3C239.321 324.732 239.321 328.728 239.321 332.564C239.321 336.4 239.321 340.156 239.321 347.788C239.359 352.915 239.078 358.04 238.481 363.132C237.886 368.158 237.605 373.216 237.642 378.276C237.516 383.338 238.081 388.392 239.321 393.301C240.639 398.347 241.258 403.55 241.159 408.765C241.159 416.397 240.919 420.273 240.719 424.069C240.519 427.865 240.24 431.621 240.24 439.213C240.298 444.382 239.883 449.545 239.001 454.637C238.156 459.613 237.782 464.656 237.882 469.702L235.884 469.702C235.824 464.547 236.238 459.397 237.123 454.318C238.005 449.332 238.42 444.276 238.362 439.213C238.362 431.581 238.601 427.705 238.841 423.949C239.081 420.193 239.281 416.357 239.281 408.765C239.369 403.711 238.764 398.67 237.483 393.78C236.202 388.728 235.597 383.528 235.684 378.316C235.646 373.189 235.927 368.065 236.524 362.972C237.141 357.949 237.422 352.889 237.363 347.828C237.363 340.196 237.363 336.4 237.363 332.564C237.363 328.728 237.363 324.972 237.363 317.34C237.363 309.707 237.363 305.831 237.602 302.075C237.842 298.319 237.842 294.443 237.842 286.851C237.842 279.259 237.842 275.383 237.602 271.627C237.363 267.871 237.323 263.995 237.323 256.363C237.323 248.731 237.323 244.895 237.323 241.099C237.323 237.302 237.762 233.426 237.762 225.954Z" fill="white"/>
<path d="M221.739 225.954L223.737 225.954C223.737 233.626 223.537 237.502 223.377 241.258C223.217 245.014 223.058 248.85 223.058 256.483C223.058 264.115 223.058 268.031 222.618 271.787C222.178 275.543 222.178 279.379 222.178 286.971C222.046 291.966 222.434 296.961 223.337 301.876C224.295 306.96 224.75 312.126 224.696 317.3C224.637 322.354 224.985 327.405 225.735 332.404C226.463 337.499 226.81 342.641 226.774 347.788C226.861 353.018 226.229 358.234 224.896 363.292C223.664 368.187 223.139 373.233 223.337 378.276C223.337 385.869 223.657 389.705 223.977 393.421C224.296 397.137 224.616 401.093 224.616 408.765C224.616 416.437 224.616 420.273 224.616 424.029C224.616 427.785 224.616 431.621 224.616 439.213C224.529 444.351 224.102 449.477 223.337 454.557C222.794 459.587 222.54 464.643 222.578 469.702L220.58 469.702C220.542 464.575 220.822 459.45 221.419 454.358C221.998 449.331 222.265 444.273 222.218 439.213C222.218 431.581 222.218 427.705 222.218 423.989C222.218 420.273 222.218 416.357 222.218 408.765C222.218 401.173 221.899 397.337 221.579 393.581C221.259 389.825 220.94 385.949 220.94 378.276C220.849 373.06 221.481 367.856 222.818 362.812C224.12 357.913 224.739 352.857 224.656 347.788C224.714 342.734 224.367 337.683 223.617 332.684C222.868 327.591 222.521 322.447 222.578 317.3C222.651 312.245 222.196 307.196 221.219 302.235C220.242 297.154 219.787 291.985 219.861 286.811C219.861 279.179 220.101 275.263 220.3 271.507C220.5 267.751 220.74 263.915 220.74 256.323C220.74 248.731 220.74 244.775 221.06 241.019C221.379 237.262 221.739 233.426 221.739 225.954Z" fill="white"/>
<path d="M207.593 225.954L209.591 225.954C209.549 231.017 209.856 236.078 210.51 241.099C211.131 246.149 211.411 251.235 211.35 256.323C211.44 261.558 210.78 266.779 209.392 271.827C208.048 276.705 207.415 281.752 207.514 286.811C207.514 294.443 207.514 298.239 207.514 302.035C207.514 305.831 207.514 309.668 207.514 317.3C207.514 324.932 207.833 328.728 208.113 332.484C208.393 336.24 208.752 340.116 208.752 347.788C208.752 355.46 208.433 359.336 208.113 363.132C207.793 366.928 207.514 370.684 207.514 378.276C207.408 383.346 208.151 388.397 209.711 393.221C211.324 398.241 212.094 403.493 211.989 408.765C212.104 414.046 211.293 419.307 209.591 424.309C207.966 429.104 207.208 434.152 207.354 439.213C207.354 446.805 207.673 450.642 207.953 454.398C208.233 458.154 208.632 462.03 208.632 469.702L206.635 469.702C206.635 462.11 206.315 458.274 206.035 454.557C205.755 450.841 205.436 446.885 205.436 439.213C205.324 433.942 206.15 428.692 207.873 423.709C209.522 418.904 210.306 413.844 210.191 408.765C210.312 403.682 209.569 398.615 207.993 393.78C206.38 388.774 205.61 383.535 205.715 378.276C205.715 370.604 206.035 366.728 206.355 362.972C206.674 359.216 206.954 355.38 206.954 347.788C206.954 340.196 206.634 336.36 206.315 332.644C205.995 328.928 205.715 324.972 205.715 317.3C205.715 309.628 205.715 305.871 205.715 302.075C205.715 298.279 205.715 294.443 205.715 286.811C205.521 281.592 206.073 276.371 207.354 271.307C208.697 266.429 209.33 261.382 209.232 256.323C209.274 251.26 208.967 246.199 208.313 241.178C207.733 236.125 207.492 231.039 207.593 225.954V225.954Z" fill="white"/>
<path d="M193.928 225.954L195.926 225.954C195.926 233.626 195.926 237.502 195.686 241.258C195.446 245.014 195.686 248.85 195.686 256.483C195.686 264.115 195.686 267.911 195.686 271.707C195.686 275.503 195.686 279.339 195.686 286.971L195.686 317.3C195.686 324.892 196.045 328.728 196.325 332.444C196.605 336.16 197.004 340.116 197.004 347.788C197.004 355.46 197.004 359.336 196.725 363.052C196.445 366.768 196.445 370.684 196.445 378.276C196.445 385.869 196.445 389.745 196.805 393.461C197.164 397.177 197.164 401.093 197.164 408.765C197.164 416.437 196.965 420.273 196.725 424.029C196.485 427.785 196.325 431.621 196.325 439.213C196.387 444.408 195.877 449.594 194.807 454.677C193.742 459.613 193.246 464.654 193.328 469.702L191.37 469.702C191.286 464.519 191.796 459.344 192.889 454.278C193.953 449.329 194.449 444.275 194.367 439.213C194.367 431.581 194.367 427.705 194.767 423.949C195.166 420.193 195.206 416.357 195.206 408.765C195.206 401.173 195.206 397.297 194.847 393.581C194.487 389.864 194.487 385.909 194.487 378.276C194.487 370.644 194.487 366.768 194.767 363.012C195.046 359.256 195.046 355.38 195.046 347.788C195.046 340.196 194.687 336.36 194.407 332.644C194.127 328.928 193.728 324.972 193.728 317.3L193.728 286.811C193.728 279.179 193.728 275.383 193.728 271.587C193.728 267.791 193.728 263.955 193.728 256.323C193.728 248.691 193.728 244.775 193.728 241.019C193.728 237.262 193.928 233.426 193.928 225.954Z" fill="white"/>
<path d="M179.103 225.954L181.101 225.954C181.151 231.124 180.723 236.287 179.822 241.378C178.901 246.359 178.473 251.418 178.544 256.483C178.483 261.532 178.897 266.576 179.782 271.547C180.704 276.635 181.132 281.801 181.061 286.971C181.061 294.603 181.061 298.399 181.061 302.235L181.061 317.3C181.061 324.972 180.781 328.848 180.502 332.604C180.222 336.36 179.942 340.196 179.942 347.788C179.942 355.38 180.182 359.256 180.422 362.972C180.661 366.688 180.901 370.644 180.901 378.276C180.947 383.403 180.68 388.527 180.102 393.621C179.576 398.651 179.336 403.707 179.383 408.765C179.324 413.819 179.672 418.87 180.422 423.869C181.172 428.949 181.52 434.079 181.461 439.213C181.533 444.417 180.969 449.61 179.782 454.677C178.582 459.594 178.005 464.641 178.064 469.702L176.066 469.702C175.977 464.497 176.541 459.302 177.744 454.238C178.922 449.319 179.473 444.271 179.383 439.213C179.441 434.159 179.094 429.108 178.344 424.109C177.593 419.03 177.246 413.899 177.305 408.765C177.271 403.64 177.525 398.517 178.064 393.421C178.641 388.394 178.908 383.336 178.863 378.276C178.863 370.684 178.584 366.848 178.384 363.092C178.184 359.336 177.904 355.46 177.904 347.788C177.904 340.116 178.184 336.24 178.464 332.484C178.743 328.728 179.023 324.892 179.023 317.3L179.023 301.876C179.023 297.88 179.023 294.243 179.023 286.611C179.084 281.562 178.669 276.518 177.784 271.547C176.863 266.459 176.435 261.293 176.506 256.123C176.456 250.953 176.884 245.79 177.784 240.699C178.695 235.838 179.137 230.9 179.103 225.954V225.954Z" fill="white"/>
<path d="M162.281 225.954L164.278 225.954C164.278 233.586 164.278 237.422 164.278 241.218L164.278 256.323C164.278 263.915 164.278 267.791 164.558 271.547C164.838 275.303 164.838 279.179 164.838 286.811C164.778 291.841 164.991 296.869 165.477 301.876C165.797 305.672 166.156 309.548 166.156 317.22C166.195 322.347 165.914 327.471 165.317 332.564C164.74 337.591 164.473 342.648 164.518 347.708C164.518 355.34 164.518 359.216 164.318 362.972C164.119 366.728 164.318 370.604 164.318 378.197C164.217 383.261 164.877 388.312 166.276 393.181C167.706 398.222 168.379 403.447 168.274 408.685C168.368 413.907 167.709 419.115 166.316 424.149C164.941 429.022 164.295 434.071 164.398 439.133C164.309 444.195 164.887 449.247 166.117 454.158C167.337 459.245 167.874 464.473 167.715 469.702L165.717 469.702C165.806 464.64 165.228 459.588 163.999 454.677C162.718 449.625 162.114 444.425 162.201 439.213C162.11 433.992 162.769 428.784 164.159 423.749C165.534 418.877 166.18 413.827 166.077 408.765C166.166 403.704 165.52 398.656 164.159 393.78C162.714 388.742 162.028 383.517 162.121 378.276C162.121 370.644 162.121 366.768 162.121 363.012C162.121 359.256 162.32 355.42 162.32 347.788C162.362 342.656 162.722 337.531 163.399 332.444C163.977 327.417 164.244 322.359 164.199 317.3C164.188 312.241 163.921 307.187 163.399 302.155C162.897 297.057 162.67 291.934 162.72 286.811C162.72 279.219 162.72 275.343 162.44 271.587C162.161 267.831 162.161 263.955 162.161 256.323L162.161 241.059C162.241 237.262 162.281 233.426 162.281 225.954Z" fill="white"/>
<path d="M150.213 225.954L152.211 225.954C152.211 233.586 152.211 237.382 152.211 241.218C152.211 245.054 152.211 248.85 152.211 256.483C152.211 264.115 151.971 268.031 151.731 271.787C151.492 275.543 151.252 279.379 151.252 286.971C151.252 294.563 151.252 298.399 151.252 302.195C151.252 305.991 151.252 309.827 151.252 317.459C151.252 325.092 151.252 329.007 150.852 332.764C150.453 336.52 150.413 340.356 150.413 347.948C150.413 355.54 150.413 359.376 150.413 363.212L150.413 378.276C150.413 385.869 150.413 389.745 150.732 393.461C151.052 397.177 151.412 401.093 151.412 408.765C151.412 416.437 151.132 420.313 150.852 424.069C150.573 427.825 150.253 431.661 150.253 439.213C150.253 446.766 150.253 450.642 150.253 454.438C150.253 458.234 150.253 462.07 150.253 469.702L148.255 469.702C148.255 462.11 148.255 458.274 148.255 454.478C148.255 450.681 148.255 446.845 148.255 439.213C148.255 431.581 148.575 427.665 148.854 423.909C149.134 420.153 149.414 416.317 149.414 408.765C149.414 401.213 149.414 397.297 149.094 393.541C148.774 389.785 148.774 385.909 148.774 378.276L148.774 363.052C148.774 359.056 148.774 355.42 148.774 347.788C148.774 340.156 148.974 336.24 149.214 332.484C149.454 328.728 149.613 324.892 149.613 317.3C149.613 309.707 149.613 305.871 149.613 302.075C149.613 298.279 149.613 294.443 149.613 286.811C149.613 279.179 149.853 275.263 150.093 271.507C150.333 267.751 150.572 263.915 150.572 256.323C150.572 248.731 150.572 244.895 150.572 241.059C150.572 237.223 150.213 233.426 150.213 225.954Z" fill="white"/>
<path d="M134.589 225.954L136.587 225.954C136.631 231.094 136.365 236.231 135.788 241.338C135.248 246.368 134.995 251.424 135.029 256.483C135.029 264.115 135.029 267.991 134.749 271.747C134.469 275.503 134.469 279.379 134.469 286.971C134.469 294.563 134.469 298.439 134.789 302.195C135.109 305.951 135.069 309.827 135.069 317.459C135.069 325.092 135.428 328.768 135.428 332.484C135.428 336.2 135.908 340.156 135.908 347.788C135.878 352.844 136.105 357.899 136.587 362.932C137.088 368.031 137.315 373.153 137.266 378.276C137.266 385.909 137.266 389.705 137.266 393.541C137.266 397.377 137.266 401.133 137.266 408.765C137.266 416.397 137.546 420.193 137.826 423.909C138.105 427.625 138.425 431.581 138.425 439.213C138.513 444.456 137.813 449.683 136.347 454.717C134.903 459.578 134.216 464.632 134.309 469.702L132.311 469.702C132.206 464.458 132.907 459.229 134.389 454.198C135.806 449.332 136.479 444.28 136.387 439.213C136.387 431.661 136.108 427.785 135.788 424.069C135.468 420.353 135.228 416.397 135.228 408.765C135.228 401.133 135.228 397.297 135.228 393.501C135.228 389.705 135.228 385.909 135.228 378.276C135.278 373.22 135.052 368.164 134.549 363.132C134.229 359.376 133.87 355.46 133.87 347.788C133.87 340.116 133.63 336.36 133.39 332.604C133.151 328.848 132.911 324.972 132.911 317.3C132.911 309.628 132.911 305.831 132.631 302.115C132.351 298.399 132.311 294.443 132.311 286.811C132.311 279.179 132.311 275.303 132.591 271.547C132.871 267.791 132.871 263.915 132.871 256.323C132.825 251.197 133.092 246.072 133.67 240.979C134.255 235.991 134.562 230.976 134.589 225.954V225.954Z" fill="white"/>
<path d="M117.966 225.954L119.964 225.954C119.878 231.023 120.334 236.086 121.323 241.059C122.319 246.138 122.788 251.307 122.721 256.483C122.764 261.612 122.457 266.739 121.802 271.827C121.169 276.849 120.875 281.909 120.923 286.971C120.923 294.563 121.243 298.399 121.523 302.155C121.802 305.911 122.122 309.787 122.122 317.459C122.187 322.606 121.853 327.749 121.123 332.844C120.431 337.848 120.11 342.896 120.164 347.948C120.123 352.998 120.43 358.045 121.083 363.052C121.793 368.149 122.127 373.291 122.082 378.436L122.082 408.765C122.082 416.397 121.802 420.313 121.523 424.069C121.243 427.825 121.003 431.661 121.003 439.213C121.003 446.766 121.283 450.681 121.523 454.398C121.762 458.114 122.082 462.03 122.082 469.702L120.084 469.702C120.084 462.11 119.804 458.274 119.525 454.557C119.245 450.841 119.005 446.885 119.005 439.213C119.005 431.541 119.445 427.665 119.445 423.909C119.445 420.153 119.964 416.317 119.964 408.765L119.964 378.276C120.018 373.225 119.698 368.176 119.005 363.172C118.314 358.074 117.993 352.933 118.046 347.788C117.981 342.642 118.315 337.498 119.045 332.404C119.738 327.4 120.058 322.351 120.004 317.3C120.004 309.707 119.725 305.871 119.405 302.155C119.085 298.439 118.805 294.483 118.805 286.811C118.755 281.683 119.049 276.556 119.685 271.467C120.336 266.446 120.643 261.386 120.604 256.323C120.76 251.261 120.372 246.197 119.445 241.218C118.435 236.194 117.94 231.079 117.966 225.954V225.954Z" fill="white"/>
<path d="M106.978 225.954L108.976 225.954C109.034 231.123 108.619 236.285 107.737 241.378C106.873 246.365 106.472 251.422 106.538 256.483C106.51 261.539 106.737 266.593 107.217 271.627C107.737 276.725 107.977 281.847 107.937 286.971C107.937 294.603 107.937 298.519 107.617 302.275C107.297 306.031 107.457 309.867 107.457 317.3C107.403 322.351 107.724 327.4 108.416 332.404C109.087 337.504 109.407 342.644 109.375 347.788C109.375 355.42 109.375 359.216 109.375 363.052C109.375 366.888 109.375 370.644 109.375 378.276L109.375 408.765C109.331 413.963 108.688 419.138 107.457 424.189C106.377 429.122 105.868 434.164 105.939 439.213C105.939 446.845 105.939 450.681 105.939 454.478C105.939 458.274 105.939 462.11 105.939 469.702L103.461 469.702C103.461 462.07 103.461 458.274 103.461 454.438C103.461 450.602 103.461 446.845 103.461 439.213C103.387 434.029 103.91 428.854 105.02 423.789C106.1 418.856 106.609 413.815 106.538 408.765L106.538 378.276C106.538 370.644 106.538 366.848 106.538 363.012C106.538 359.176 106.538 355.42 106.538 347.788C106.592 342.736 106.272 337.688 105.579 332.684C104.888 327.586 104.567 322.444 104.62 317.3C104.62 309.668 104.62 305.792 104.94 302.035C105.259 298.279 105.259 294.403 105.259 286.811C105.289 281.755 105.062 276.7 104.58 271.667C104.061 266.569 103.821 261.447 103.861 256.323C103.803 251.154 104.217 245.992 105.1 240.899C106.162 235.982 106.79 230.981 106.978 225.954V225.954Z" fill="white"/>
<path d="M88.4768 225.954L90.4747 225.954C90.3902 231.02 90.9134 236.077 92.0331 241.019C93.1626 246.094 93.699 251.283 93.6315 256.483C93.7083 261.684 93.1583 266.876 91.9931 271.947C90.8728 276.874 90.3495 281.918 90.4348 286.971C90.4348 294.603 90.4348 298.399 90.4348 302.235C90.4348 306.071 90.4348 309.827 90.4348 317.459C90.4348 325.092 90.4348 328.928 90.7544 332.684C91.0741 336.44 91.0741 340.316 91.0741 347.948C91.0741 355.58 91.0741 359.456 90.8343 363.212C90.5946 366.968 90.8343 370.844 90.8343 378.436C90.8343 386.028 90.8343 389.864 90.8343 393.661C90.8343 397.457 90.8343 401.293 90.8343 408.925C90.8343 416.557 90.8344 420.433 90.5147 424.189C90.195 427.945 90.235 431.781 90.235 439.373C90.235 446.965 90.5147 450.841 90.7544 454.557C90.9942 458.274 91.0741 462.03 91.0741 469.702L89.0762 469.702C89.0762 462.11 88.7965 458.274 88.5567 454.557C88.317 450.841 87.9973 446.885 87.9973 439.213C87.9973 431.541 87.9973 427.705 88.277 423.949C88.5567 420.193 88.5967 416.357 88.5967 408.765C88.5967 401.173 88.5967 397.337 88.5967 393.541C88.5967 389.745 88.5967 385.909 88.5967 378.276C88.5967 370.644 88.5967 366.768 88.5967 363.012C88.5967 359.256 88.8364 355.42 88.8364 347.788C88.8364 340.156 88.8364 336.32 88.5168 332.604C88.1971 328.888 88.1971 324.932 88.1971 317.3C88.1971 309.668 88.1971 305.871 88.1971 302.035C88.1971 298.199 88.1971 294.443 88.1971 286.811C88.1321 281.612 88.6684 276.423 89.7954 271.347C90.9809 266.429 91.5447 261.381 91.4737 256.323C91.5582 251.257 91.0351 246.199 89.9153 241.258C88.8319 236.232 88.349 231.095 88.4768 225.954V225.954Z" fill="white"/>
<path d="M76.6891 225.954L78.6871 225.954C78.6871 233.626 78.4073 237.542 78.0877 241.298C77.768 245.054 77.5283 248.89 77.5283 256.483C77.5605 261.607 77.307 266.73 76.769 271.827C76.2307 276.856 75.9772 281.913 76.0098 286.971C76.0098 294.603 76.0098 298.439 76.0098 302.235C76.0098 306.031 76.0098 309.867 76.0098 317.459C76.0098 325.052 76.0098 328.928 76.0098 332.724C76.0098 336.52 76.0098 340.356 76.0098 347.948C75.8998 353.01 76.5462 358.061 77.9278 362.932C79.3164 367.981 79.9757 373.201 79.8858 378.436C79.8858 386.068 79.8858 389.944 79.8858 393.7C79.8858 397.457 79.686 401.293 79.686 408.925C79.686 416.557 79.4063 420.473 79.1666 424.229C78.9268 427.985 78.6471 431.821 78.6471 439.373C78.6957 444.515 78.4021 449.654 77.768 454.757C76.8725 459.695 76.3118 464.688 76.0898 469.702L74.0918 469.702C74.0621 464.574 74.3557 459.449 74.9709 454.358C75.6072 449.335 75.9009 444.276 75.85 439.213C75.85 431.581 76.1297 427.665 76.3695 423.909C76.6092 420.153 76.8889 416.357 76.8889 408.765C76.8889 401.173 76.8889 397.257 77.0887 393.501C77.2885 389.745 77.0887 385.869 77.0887 378.276C77.3029 373.23 76.7642 368.18 75.4904 363.292C74.0986 358.244 73.4392 353.023 73.5324 347.788C73.5324 340.156 73.5324 336.36 73.5324 332.524C73.5324 328.688 73.5324 324.932 73.5324 317.3C73.5324 309.668 73.5324 305.871 73.5324 302.035C73.5324 298.199 73.5324 294.443 73.5324 286.811C73.4989 281.686 73.7523 276.564 74.2916 271.467C74.9769 266.446 75.3771 261.389 75.4904 256.323C75.4904 248.651 75.7701 244.735 76.0498 240.979C76.3295 237.223 76.6891 233.387 76.6891 225.954Z" fill="white"/>
<path d="M59.1073 225.955L61.1052 225.955C61.1052 233.587 61.1052 237.463 61.345 241.179C61.5847 244.895 61.5847 248.851 61.5847 256.483C61.4901 261.538 62.027 266.585 63.1831 271.507C64.3482 276.578 64.8983 281.77 64.8214 286.971C64.8719 292.12 64.5111 297.264 63.7425 302.356C62.9926 307.354 62.6452 312.405 62.7036 317.46C62.7036 325.132 62.3839 329.008 62.1042 332.804C61.8245 336.6 61.4649 340.356 61.4649 347.948C61.4103 353.007 61.6639 358.065 62.2241 363.093C62.7436 368.19 62.9838 373.313 62.9433 378.437C62.9433 386.069 62.9434 389.865 62.9434 393.661C62.9434 397.457 62.9434 401.293 62.9434 408.925C62.9061 413.973 63.1863 419.017 63.7825 424.03C64.4169 429.119 64.7106 434.245 64.6616 439.374C64.6616 447.046 64.6616 450.922 64.3819 454.678C64.1022 458.434 64.0622 462.27 64.0622 469.862L62.0643 469.862C62.0643 462.23 62.0643 458.354 62.3839 454.598C62.7036 450.842 62.6636 447.006 62.6636 439.374C62.7009 434.326 62.4207 429.281 61.8245 424.269C61.1901 419.18 60.8964 414.054 60.9454 408.925C60.9454 401.293 60.9454 397.497 60.9454 393.701C60.9454 389.905 60.9454 386.069 60.9454 378.437C60.9861 373.379 60.746 368.323 60.2262 363.292C59.6943 358.142 59.4541 352.966 59.5069 347.788C59.5069 340.116 59.8266 336.24 60.1463 332.484C60.4659 328.728 60.7456 324.892 60.7456 317.3C60.6732 312.14 61.0073 306.983 61.7446 301.876C62.5127 296.879 62.8735 291.827 62.8235 286.772C62.9003 281.717 62.3636 276.672 61.2251 271.747C60.0363 266.693 59.4594 261.515 59.5069 256.323C59.5069 248.691 59.5069 244.815 59.2672 241.099C59.0274 237.383 59.1073 233.467 59.1073 225.955Z" fill="white"/>
<path d="M45.3615 225.954L47.5193 225.954C47.4729 231.014 47.7398 236.072 48.3184 241.099C48.9135 246.204 49.1938 251.342 49.1576 256.483C49.1899 261.607 48.9364 266.73 48.3984 271.827C47.826 276.801 47.5325 281.804 47.5193 286.811C47.5193 294.403 47.799 298.279 48.0387 301.995C48.2785 305.712 48.5183 309.668 48.5183 317.3C48.4771 322.363 48.7842 327.423 49.4373 332.444C50.0916 337.532 50.3986 342.658 50.3563 347.788C50.4433 353.018 49.8114 358.234 48.4783 363.292C47.19 368.18 46.5849 373.223 46.6802 378.276C46.6802 385.869 46.6802 389.745 46.9199 393.501C47.1597 397.257 47.1597 401.133 47.1597 408.765C47.1284 413.823 47.3818 418.879 47.9189 423.909C48.4975 428.989 48.7645 434.1 48.7181 439.213C48.7686 444.342 48.4749 449.468 47.839 454.557C47.2312 459.582 46.9376 464.64 46.9599 469.702L44.9619 469.702C44.9238 464.575 45.2041 459.45 45.8011 454.358C46.4374 449.335 46.7311 444.276 46.6802 439.213C46.7255 434.167 46.4586 429.122 45.881 424.109C45.343 419.012 45.0895 413.89 45.1218 408.765C45.1218 401.133 45.1218 397.297 44.882 393.541C44.6423 389.785 44.6423 385.909 44.6423 378.276C44.5518 373.06 45.1838 367.856 46.5203 362.812C47.8053 357.91 48.4103 352.855 48.3184 347.788C48.3998 342.741 48.1328 337.694 47.5193 332.684C46.8669 327.582 46.5598 322.442 46.6002 317.3C46.6002 309.707 46.3605 305.871 46.1207 302.115C45.881 298.359 45.6013 294.483 45.6013 286.811C45.5677 281.686 45.8212 276.564 46.3605 271.467C46.9194 266.439 47.173 261.382 47.1197 256.323C47.1786 251.262 46.8983 246.202 46.2806 241.178C45.6689 236.127 45.362 231.043 45.3615 225.954V225.954Z" fill="white"/>
<path d="M31.5358 225.955L33.5337 225.955C33.4933 231.025 33.7334 236.095 34.253 241.139C34.7922 246.235 35.0457 251.358 35.0122 256.483C35.0122 264.075 35.0122 267.951 35.0122 271.707C35.0122 275.463 35.0122 279.339 35.0122 286.971C35.0122 294.604 34.6525 298.519 34.3329 302.316C34.0132 306.112 33.6935 309.868 33.6935 317.46C33.6935 325.052 33.3739 329.008 33.0542 332.804C32.7345 336.6 32.4149 340.356 32.4149 347.948C32.4149 355.54 32.6946 359.416 32.9343 363.133C33.1741 366.849 33.4138 370.805 33.4138 378.437C33.4138 386.069 33.1741 389.985 32.9343 393.741C32.6946 397.497 32.4548 401.333 32.4548 408.925C32.4548 416.517 32.4548 420.393 32.7745 424.109C33.0942 427.826 33.0942 431.742 33.0942 439.374C33.0942 447.006 33.0942 450.802 33.0942 454.638C33.0942 458.474 33.0942 462.23 33.0942 469.862L31.5358 469.862C31.5358 462.23 31.5358 458.434 31.5358 454.638C31.5358 450.842 31.5358 447.006 31.5358 439.374C31.5358 431.742 31.5358 427.945 31.2161 424.189C30.8964 420.433 30.8964 416.557 30.8964 408.925C30.8964 401.293 31.1762 397.377 31.4159 393.621C31.6557 389.865 31.8555 386.029 31.8555 378.437C31.8555 370.845 31.6157 367.009 31.3759 363.252C31.1362 359.496 30.8565 355.62 30.8565 347.948C30.8565 340.276 31.1761 336.4 31.4958 332.644C31.8155 328.888 32.1352 325.052 32.1352 317.46C32.1352 309.868 32.5348 305.872 32.8544 301.876C33.3363 296.843 33.563 291.788 33.5337 286.732C33.5337 279.14 33.5337 275.264 33.5337 271.507C33.5337 267.751 33.5337 263.875 33.5337 256.243C33.5659 251.172 33.3124 246.102 32.7745 241.059C32.0889 236.05 31.6754 231.008 31.5358 225.955V225.955Z" fill="white"/>
<path d="M16.0319 225.954L18.0299 225.954C18.0714 231.078 17.8313 236.201 17.3106 241.298C16.8302 246.345 16.6034 251.413 16.6313 256.483C16.5336 261.547 17.1936 266.598 18.5893 271.467C20.0369 276.505 20.7237 281.73 20.6272 286.971C20.6376 292.065 20.277 297.153 19.5483 302.195C18.8374 307.198 18.5035 312.247 18.5493 317.3C18.5493 324.932 18.5493 328.848 18.1098 332.604C17.6702 336.36 17.7102 340.196 17.7102 347.788C17.6683 352.846 17.9084 357.902 18.4295 362.932C18.9675 368.029 19.2209 373.152 19.1887 378.276C19.1887 385.869 19.4684 389.705 19.7481 393.461C20.0278 397.217 20.3075 401.093 20.3075 408.765C20.3621 413.877 20.1085 418.988 19.5483 424.069C19.0296 429.1 18.7895 434.156 18.829 439.213C18.8706 444.337 18.6305 449.46 18.1098 454.557C17.6546 459.592 17.4545 464.647 17.5104 469.702L15.5524 469.702C15.5524 462.03 15.9121 458.154 16.2317 454.358C16.7528 449.327 16.9929 444.271 16.951 439.213C16.8979 434.101 17.1514 428.991 17.7102 423.909C18.2289 418.878 18.469 413.822 18.4295 408.765C18.4295 401.173 18.1498 397.297 17.87 393.581C17.5903 389.864 17.3106 385.949 17.3106 378.276C17.3639 373.218 17.1103 368.16 16.5514 363.132C16.0307 358.034 15.7906 352.912 15.8321 347.788C15.8321 340.156 15.8321 336.24 16.2317 332.484C16.6313 328.728 16.6713 324.892 16.6713 317.3C16.6114 312.142 16.9319 306.986 17.6303 301.876C18.3617 296.875 18.6957 291.824 18.6292 286.771C18.7269 281.707 18.0669 276.656 16.6713 271.787C15.2272 266.748 14.5403 261.523 14.6334 256.283C14.6334 248.611 14.993 244.695 15.3127 240.939C15.8249 235.961 16.065 230.958 16.0319 225.954Z" fill="white"/>
<path d="M1.8466 225.954L3.84453 225.954C3.84453 233.586 4.04434 237.422 4.20417 241.178C4.36401 244.935 4.56379 248.811 4.56379 256.483C4.56379 264.155 4.28409 268.031 4.04434 271.787C3.80459 275.543 3.52486 279.379 3.52486 286.971C3.47401 291.962 3.8483 296.948 4.64369 301.876C5.46945 306.961 5.85714 312.108 5.8025 317.26C5.9014 322.474 5.28291 327.678 3.96441 332.724C2.69739 337.628 2.10589 342.683 2.20625 347.748C2.11609 352.808 2.59863 357.861 3.64473 362.812C4.69777 367.885 5.19355 373.057 5.12322 378.237C5.12322 385.829 5.12322 389.705 5.12322 393.461C5.12322 397.217 5.12322 401.093 5.12322 408.725C5.12322 416.357 5.12322 420.113 5.12322 423.949C5.12322 427.785 5.12322 431.581 5.12322 439.173C5.19791 444.4 4.57984 449.613 3.28513 454.677C2.14373 459.599 1.71314 464.658 2.00646 469.702L0.00852421 469.702C-0.081932 464.485 0.550087 459.281 1.88658 454.238C3.13112 449.33 3.69581 444.275 3.56484 439.213C3.56484 431.621 3.56484 427.825 3.56484 423.989C3.56483 420.153 3.56483 416.397 3.56483 408.765C3.56483 401.133 3.56483 397.297 3.56483 393.541C3.56483 389.785 3.56483 385.909 3.56483 378.276C3.632 373.218 3.14966 368.167 2.12632 363.212C1.07328 358.14 0.577502 352.968 0.647836 347.788C0.548934 342.573 1.16745 337.37 2.48596 332.324C3.73294 327.416 4.32412 322.363 4.24412 317.3C4.29842 312.241 3.91067 307.187 3.08531 302.195C2.27604 297.108 1.90174 291.962 1.96647 286.811C1.96647 279.139 2.20624 275.263 2.48595 271.507C2.76566 267.751 3.0054 263.915 3.0054 256.323C3.0054 248.731 3.00539 244.855 2.64576 241.099C2.28613 237.342 1.8466 233.466 1.8466 225.954Z" fill="white"/>
</g>
</svg>
