<svg width="414" height="802" viewBox="0 0 414 802" fill="none" xmlns="http://www.w3.org/2000/svg">
<path d="M-85.818 251.184C-113.667 272.897 -135.14 301.704 -162.03 324.52C-188.92 347.336 -220.508 363.969 -238.387 393.495C-254.684 420.385 -256.409 453.362 -257.847 484.806C-260.403 542.421 -262.912 600.035 -265.372 657.65C-267.242 700.118 -266.858 748.338 -235.942 777.481C-216.481 795.887 -188.01 802.501 -161.359 801.063C-134.709 799.625 -108.634 790.95 -83.3735 782.418L117.942 714.689C137.93 707.979 158.445 700.981 174.742 687.512C214.574 654.726 217.354 595.817 216.97 544.242C216.299 461.415 215.612 378.572 214.909 295.713C214.574 254.443 211.123 206.751 177.666 182.545C153.7 165.241 120.483 165.912 93.0654 176.793C64.1143 188.249 42.1613 218.446 12.0118 224.39C-25.4712 231.915 -52.1216 224.917 -85.818 251.184Z" fill="#E23B00"/>
<g opacity="0.6">
<path d="M413.367 483.063L413.367 485.491C404.094 485.491 399.481 485.491 394.82 485.491C390.159 485.491 385.547 485.491 376.273 485.491C370.137 485.402 364.011 486.021 358.017 487.336C351.854 488.73 345.545 489.382 339.227 489.278C332.998 489.334 326.772 489.01 320.583 488.307C314.471 487.653 308.328 487.345 302.181 487.384C296.033 487.33 289.888 487.654 283.78 488.355C277.666 489.235 271.505 489.738 265.33 489.861C259.103 489.901 252.878 489.593 246.685 488.938C240.574 488.284 234.43 487.976 228.284 488.016C222.138 487.922 215.992 488.214 209.882 488.889C203.693 489.592 197.467 489.916 191.238 489.861C185.028 489.911 178.82 489.62 172.642 488.987C166.529 488.356 160.386 488.065 154.241 488.113C147.925 488.205 141.62 487.57 135.451 486.219C129.457 484.904 123.331 484.285 117.195 484.374L117.195 481.946C123.494 481.856 129.782 482.492 135.936 483.84C141.947 485.155 148.089 485.774 154.241 485.685C160.451 485.636 166.658 485.927 172.836 486.559C178.949 487.191 185.093 487.482 191.238 487.433C197.321 487.481 203.402 487.157 209.445 486.462C215.633 485.736 221.86 485.396 228.09 485.442C234.317 485.403 240.541 485.711 246.734 486.365C252.843 487.045 258.989 487.353 265.135 487.287C271.35 487.366 277.563 487.025 283.731 486.268C289.92 485.565 296.147 485.241 302.375 485.297C308.635 485.252 314.892 485.56 321.117 486.219C327.225 486.922 333.37 487.246 339.518 487.19C345.67 487.276 351.812 486.657 357.823 485.345C363.97 483.951 370.262 483.298 376.564 483.403C385.838 483.403 390.45 483.403 395.063 483.403C399.675 483.403 404.288 483.063 413.367 483.063Z" fill="white"/>
<path d="M413.367 466.846L413.367 469.274C404.142 469.274 399.433 469.614 394.917 469.954C390.402 470.294 385.789 470.439 376.467 470.439C370.203 470.513 363.946 470.009 357.774 468.934C351.717 467.862 345.573 467.358 339.421 467.429C333.242 467.366 327.083 468.15 321.117 469.76C314.978 471.316 308.659 472.05 302.327 471.944C293.053 471.944 288.441 471.944 283.828 471.944C279.216 471.944 274.555 471.944 265.281 471.944L228.284 471.944C221.95 472.16 215.616 471.54 209.445 470.099C203.486 468.56 197.344 467.841 191.189 467.963C185.056 467.918 178.927 468.258 172.836 468.983C166.649 469.706 160.422 470.047 154.192 470.002C147.928 470.07 141.671 469.566 135.499 468.497C129.456 467.444 123.328 466.957 117.195 467.041L117.195 464.613C123.46 464.514 129.719 465.018 135.888 466.118C141.95 467.143 148.092 467.631 154.241 467.575C160.374 467.62 166.503 467.28 172.594 466.555C178.782 465.848 185.009 465.523 191.238 465.584C197.57 465.478 203.889 466.213 210.028 467.769C215.995 469.263 222.133 469.965 228.284 469.857L265.33 469.857C274.555 469.857 279.216 469.857 283.828 469.857C288.441 469.857 293.102 469.857 302.375 469.857C308.53 469.979 314.672 469.26 320.631 467.72C326.771 466.164 333.089 465.43 339.421 465.535C345.685 465.462 351.943 465.966 358.114 467.041C364.172 468.113 370.316 468.616 376.467 468.546C385.692 468.546 390.402 468.157 394.917 467.866C399.433 467.575 404.239 466.846 413.367 466.846Z" fill="white"/>
<path d="M413.367 449.173L413.367 451.601C404.094 451.601 399.433 451.601 394.869 452.038C390.305 452.475 385.595 452.523 376.273 452.523C366.951 452.523 362.338 452.523 357.774 452.815C353.21 453.106 348.501 452.815 339.227 452.815C329.954 452.815 325.487 453.397 321.117 453.64C316.747 453.883 311.795 454.271 302.521 454.271C293.248 454.271 288.489 453.931 283.925 453.591C279.361 453.252 274.7 452.96 265.475 452.96C259.107 453.116 252.744 452.463 246.54 451.018C240.559 449.613 234.426 448.961 228.284 449.076C222.136 448.969 215.996 449.556 209.979 450.824C203.823 452.152 197.535 452.771 191.238 452.669C182.061 452.669 177.352 453.009 172.836 453.349C168.321 453.689 163.514 453.931 154.241 453.931C148.012 453.987 141.786 453.663 135.596 452.96C129.488 452.259 123.343 451.934 117.195 451.989L117.195 449.562C123.423 449.506 129.65 449.83 135.839 450.533C141.947 451.236 148.093 451.56 154.241 451.504C163.417 451.504 168.127 451.164 172.642 450.824C177.158 450.484 181.964 450.144 191.238 450.144C197.355 450.236 203.464 449.633 209.445 448.348C215.608 447.068 221.893 446.466 228.187 446.551C234.507 446.458 240.816 447.126 246.977 448.542C252.954 449.973 259.088 450.642 265.233 450.533C274.652 450.533 279.361 451.018 283.925 451.018C288.489 451.018 293.15 451.698 302.375 451.698C311.601 451.698 316.262 451.504 320.826 451.018C325.39 450.533 330.099 450.436 339.421 450.436C348.744 450.436 353.356 450.436 357.92 450.193C362.484 449.95 367.194 449.901 376.467 449.901C385.741 449.901 390.402 449.659 394.966 449.416C399.53 449.173 404.239 449.173 413.367 449.173Z" fill="white"/>
<path d="M413.367 432.374L413.367 434.801C404.142 434.801 399.433 435.093 394.869 435.336C390.305 435.578 385.595 435.87 376.273 435.87C369.989 435.945 363.712 435.409 357.532 434.267C351.502 433.101 345.368 432.564 339.227 432.665C330.002 432.665 325.292 432.665 320.728 432.956C316.165 433.248 311.455 433.248 302.181 433.248C296.036 433.197 289.893 433.489 283.78 434.122C277.589 434.8 271.363 435.109 265.135 435.044C255.862 435.044 251.249 435.044 246.588 435.044C241.927 435.044 237.363 435.044 228.09 435.044C218.816 435.044 214.155 435.044 209.591 435.287C205.027 435.53 200.317 435.287 191.044 435.287C184.705 435.393 178.382 434.625 172.254 433.005C166.321 431.401 160.191 430.649 154.046 430.772C147.901 430.677 141.764 431.246 135.742 432.471C129.646 433.769 123.427 434.404 117.195 434.365L117.195 431.937C123.341 432.018 129.479 431.432 135.499 430.189C141.665 428.933 147.949 428.347 154.241 428.441C160.579 428.335 166.902 429.103 173.031 430.723C178.962 432.331 185.093 433.083 191.238 432.956C200.512 432.956 205.173 432.956 209.737 432.956C214.301 432.956 219.01 432.714 228.284 432.714C237.557 432.714 242.17 432.714 246.831 432.714C251.492 432.714 256.056 432.714 265.33 432.714C271.479 432.683 277.623 432.31 283.731 431.597C289.922 430.917 296.148 430.609 302.375 430.675C311.601 430.675 316.31 430.675 320.874 430.383C325.438 430.092 330.148 430.092 339.421 430.092C345.703 429.984 351.979 430.488 358.163 431.597C364.193 432.761 370.327 433.298 376.467 433.199C385.692 433.199 390.402 432.956 394.966 432.665C399.53 432.374 404.239 432.374 413.367 432.374Z" fill="white"/>
<path d="M413.367 411.545L413.367 413.972C407.219 413.916 401.074 414.24 394.966 414.943C388.76 415.644 382.518 415.968 376.273 415.914C366.999 415.914 362.241 415.623 357.677 415.38C353.113 415.138 348.452 414.846 339.227 414.846C333.142 414.765 327.067 415.367 321.117 416.643C314.954 417.922 308.669 418.525 302.375 418.439L265.33 418.439C256.007 418.439 251.298 418.148 246.734 417.857C242.17 417.565 237.509 417.274 228.284 417.274C221.981 417.378 215.689 416.726 209.542 415.332C203.538 413.974 197.393 413.338 191.238 413.438C185.092 413.4 178.948 413.708 172.836 414.361C166.663 415.064 160.453 415.388 154.241 415.332C148.088 415.255 141.937 415.628 135.839 416.449C129.661 417.291 123.43 417.68 117.195 417.614L117.195 415.186C123.333 415.252 129.467 414.862 135.548 414.021C141.746 413.226 147.992 412.853 154.241 412.904C160.367 413.009 166.495 412.766 172.594 412.176C178.783 411.475 185.009 411.15 191.238 411.205C197.555 411.123 203.861 411.775 210.028 413.147C216.015 414.508 222.145 415.144 228.284 415.041C237.557 415.041 242.316 415.332 246.88 415.623C251.443 415.914 256.105 416.206 265.33 416.206L302.375 416.206C308.525 416.302 314.666 415.699 320.68 414.409C326.827 412.983 333.111 412.234 339.421 412.176C348.695 412.176 353.453 412.176 358.017 412.71C362.581 413.244 367.242 413.244 376.467 413.244C382.615 413.3 388.761 412.976 394.869 412.273C401.015 411.661 407.192 411.418 413.367 411.545Z" fill="white"/>
<path d="M413.367 392.512L413.367 394.94C404.142 394.94 399.433 395.328 394.917 395.716C390.402 396.105 385.595 396.445 376.273 396.445C366.951 396.445 362.338 396.736 357.823 396.979C353.307 397.222 348.501 397.464 339.227 397.464C333.173 397.417 327.123 397.774 321.117 398.532C314.935 399.327 308.706 399.701 302.473 399.649C293.199 399.649 288.538 399.649 283.925 399.406C279.313 399.164 274.652 399.406 265.427 399.406C256.202 399.406 251.541 399.406 246.928 399.406C242.316 399.406 237.654 399.406 228.381 399.406C219.107 399.406 214.398 399.406 209.834 399.406C205.27 399.406 200.609 399.164 191.335 399.164C185.033 399.268 178.741 398.616 172.594 397.222C166.599 395.909 160.474 395.29 154.338 395.377C148.192 395.301 142.052 395.756 135.985 396.736C129.774 397.738 123.485 398.177 117.195 398.047L117.195 395.619C123.34 395.695 129.481 395.24 135.548 394.26C141.724 393.222 147.978 392.718 154.241 392.755C160.54 392.665 166.828 393.3 172.982 394.648C178.97 396.007 185.099 396.643 191.238 396.542C200.512 396.542 205.221 396.542 209.785 396.785C214.349 397.027 219.059 396.785 228.284 396.785C237.509 396.785 242.17 396.785 246.782 396.785C251.395 396.785 256.056 396.785 265.33 396.785C274.603 396.785 279.216 396.785 283.877 397.027C288.538 397.27 293.102 397.027 302.375 397.027C308.512 397.078 314.644 396.705 320.728 395.911C326.929 395.14 333.174 394.783 339.421 394.842C348.646 394.842 353.356 394.842 357.871 394.357C362.387 393.871 367.194 393.823 376.467 393.823C385.741 393.823 390.402 393.434 394.917 393.095C399.433 392.755 404.239 392.512 413.367 392.512Z" fill="white"/>
<path d="M413.367 376.198L413.367 378.626C407.219 378.57 401.077 379.057 395.014 380.082C388.826 381.155 382.553 381.658 376.273 381.588C366.999 381.588 362.241 381.296 357.677 381.005C353.113 380.714 348.452 380.422 339.227 380.422C330.002 380.422 325.195 380.034 320.583 379.645C314.469 379.035 308.326 378.759 302.181 378.82C296.04 378.749 289.902 379.171 283.828 380.082C277.642 381.014 271.391 381.453 265.135 381.393C255.813 381.393 251.055 380.956 246.491 380.568C240.378 379.935 234.235 379.643 228.09 379.694C221.95 379.618 215.818 380.154 209.785 381.296C203.678 382.503 197.463 383.089 191.238 383.044C184.941 383.146 178.653 382.527 172.496 381.199C166.502 379.887 160.376 379.268 154.241 379.354C148.101 379.275 141.969 379.812 135.936 380.956C129.758 382.111 123.478 382.632 117.195 382.51L117.195 380.082C123.334 380.156 129.466 379.62 135.499 378.48C141.677 377.317 147.954 376.764 154.241 376.829C160.54 376.739 166.828 377.375 172.982 378.723C178.979 380.013 185.104 380.616 191.238 380.519C197.345 380.592 203.444 380.055 209.445 378.917C215.623 377.754 221.9 377.201 228.187 377.266C234.446 377.23 240.703 377.538 246.928 378.189C253.044 378.774 259.186 379.05 265.33 379.014C271.471 379.085 277.609 378.663 283.683 377.752C289.869 376.818 296.12 376.38 302.375 376.441C311.698 376.441 316.407 376.878 321.02 377.266C325.632 377.655 330.196 378.189 339.421 378.189C348.646 378.189 353.453 378.48 358.017 378.772C362.581 379.063 367.242 379.354 376.467 379.354C382.617 379.435 388.76 378.947 394.82 377.898C400.939 376.772 407.146 376.203 413.367 376.198V376.198Z" fill="white"/>
<path d="M413.367 358.185L413.367 360.613C407.224 360.552 401.086 360.99 395.014 361.924C388.817 362.904 382.547 363.359 376.273 363.283C370.041 363.345 363.813 362.988 357.629 362.215C351.522 361.491 345.376 361.151 339.227 361.195C333.171 361.134 327.119 361.507 321.117 362.312C314.907 363.176 308.645 363.614 302.375 363.623C293.15 363.623 288.441 363.623 283.877 363.866C279.313 364.108 274.603 363.866 265.33 363.866C259.036 363.951 252.751 363.349 246.588 362.069C240.565 360.847 234.429 360.278 228.284 360.37C219.059 360.37 214.349 360.37 209.785 360.661C205.221 360.953 200.512 360.953 191.238 360.953C185.105 360.874 178.977 361.361 172.933 362.409C166.761 363.479 160.504 363.983 154.241 363.914C147.988 363.971 141.74 363.565 135.548 362.7C129.468 361.853 123.333 361.463 117.195 361.535L117.195 359.108C123.447 359.053 129.695 359.459 135.888 360.321C141.963 361.212 148.1 361.618 154.241 361.535C160.374 361.614 166.501 361.127 172.545 360.079C178.72 359.048 184.979 358.609 191.238 358.768C200.512 358.768 205.173 358.768 209.737 358.476C214.301 358.185 219.01 358.185 228.284 358.185C234.576 358.091 240.859 358.677 247.025 359.933C253.041 361.204 259.182 361.79 265.33 361.681C274.555 361.681 279.264 361.681 283.828 361.681C288.392 361.681 293.102 361.438 302.375 361.438C308.512 361.489 314.644 361.116 320.728 360.321C326.914 359.358 333.161 358.839 339.421 358.768C345.651 358.721 351.878 359.062 358.066 359.787C364.169 360.557 370.316 360.914 376.467 360.855C382.61 360.916 388.748 360.478 394.82 359.545C400.954 358.575 407.158 358.12 413.367 358.185V358.185Z" fill="white"/>
<path d="M413.367 339.881L413.367 342.308C404.142 342.308 399.433 342.697 394.917 343.085C390.402 343.473 385.595 343.862 376.273 343.862C366.951 343.862 362.29 343.862 357.726 343.522C353.162 343.182 348.452 343.182 339.227 343.182C330.002 343.182 325.341 343.522 320.777 343.862C316.213 344.202 311.503 344.493 302.181 344.493C295.901 344.564 289.628 344.06 283.44 342.988C277.402 341.888 271.271 341.384 265.135 341.483C258.988 341.392 252.844 341.863 246.782 342.891C240.664 343.851 234.476 344.289 228.284 344.202C219.156 344.202 214.301 344.202 209.737 344.202C205.173 344.202 200.512 344.202 191.238 344.202C181.964 344.202 177.303 344.202 172.788 344.542C168.272 344.882 163.514 344.882 154.241 344.882C144.967 344.882 140.257 344.882 135.693 344.639C131.129 344.396 126.42 344.202 117.195 344.202L117.195 341.774C126.468 341.774 131.178 341.774 135.742 341.774C140.306 341.774 144.967 342.017 154.241 342.017C163.514 342.017 168.175 342.017 172.691 341.677C177.206 341.337 181.964 341.337 191.238 341.337C200.512 341.337 205.173 341.337 209.785 341.337C214.398 341.337 219.01 341.337 228.284 341.337C234.431 341.403 240.572 340.932 246.637 339.929C252.816 338.923 259.07 338.452 265.33 338.521C271.594 338.448 277.851 338.951 284.022 340.026C290.077 341.123 296.223 341.627 302.375 341.531C311.601 341.531 316.262 341.192 320.826 340.9C325.39 340.609 330.099 340.22 339.421 340.22C348.744 340.22 353.405 340.22 357.969 340.56C362.533 340.9 367.242 340.9 376.467 340.9C385.692 340.9 390.402 340.512 394.917 340.123C399.433 339.735 404.239 339.881 413.367 339.881Z" fill="white"/>
<path d="M413.367 322.547L413.367 324.781C404.045 324.781 399.287 324.441 394.723 324.101C390.159 323.761 385.498 323.421 376.273 323.421C370.13 323.333 363.995 323.886 357.968 325.072C351.79 326.236 345.513 326.788 339.227 326.723C332.967 326.792 326.713 326.32 320.534 325.315C314.464 324.359 308.325 323.904 302.181 323.955C292.956 323.955 288.295 324.344 283.731 324.732C279.167 325.121 274.457 325.509 265.135 325.509C258.991 325.473 252.849 325.749 246.733 326.334C240.539 326.966 234.315 327.257 228.089 327.208C221.859 327.339 215.628 327.015 209.445 326.237C203.344 325.444 197.195 325.071 191.043 325.121C184.904 325.02 178.775 325.656 172.787 327.014C166.633 328.362 160.345 328.998 154.046 328.908C144.724 328.908 140.014 328.908 135.45 328.568C130.886 328.228 126.225 328.179 117 328.179L117 325.752C126.274 325.752 130.983 325.752 135.547 326.14C140.111 326.529 144.772 326.48 154.046 326.48C160.242 326.654 166.436 326.084 172.496 324.781C178.643 323.386 184.935 322.734 191.237 322.839C197.488 322.774 203.736 323.164 209.93 324.004C216.023 324.684 222.155 324.944 228.283 324.781C234.427 324.816 240.569 324.541 246.685 323.955C252.879 323.323 259.103 323.031 265.329 323.081C274.554 323.081 279.215 322.693 283.731 322.304C288.246 321.916 293.053 321.528 302.375 321.528C308.657 321.523 314.927 322.059 321.116 323.13C327.186 324.085 333.325 324.54 339.469 324.489C345.612 324.578 351.746 324.025 357.774 322.839C363.952 321.675 370.229 321.122 376.515 321.188C385.837 321.188 390.547 321.528 395.16 321.867C399.772 322.207 404.336 322.547 413.367 322.547Z" fill="white"/>
<path d="M413.367 307.787L413.367 310.215C407.087 310.286 400.814 309.782 394.626 308.71C388.566 307.66 382.422 307.172 376.273 307.253C367.048 307.253 362.338 307.253 357.823 307.739C353.307 308.224 348.501 308.176 339.227 308.176C329.954 308.176 325.195 307.836 320.631 307.496C316.067 307.156 311.406 306.768 302.181 306.768C292.956 306.768 288.198 306.768 283.634 306.768C279.07 306.768 274.36 306.768 265.135 306.768C258.99 306.717 252.847 307.008 246.734 307.641C240.543 308.32 234.317 308.628 228.09 308.564C221.854 308.501 215.628 308.063 209.445 307.253C203.334 306.597 197.19 306.289 191.044 306.331C184.898 306.283 178.755 306.574 172.642 307.204C166.468 307.883 160.258 308.191 154.046 308.127C147.897 308.08 141.751 308.421 135.645 309.147C129.525 309.905 123.361 310.261 117.195 310.215L117.195 307.787C123.343 307.84 129.488 307.516 135.596 306.816C141.78 306.043 148.009 305.687 154.241 305.748C160.386 305.796 166.529 305.504 172.642 304.874C178.817 304.193 185.026 303.885 191.238 303.951C197.465 303.911 203.69 304.219 209.882 304.874C215.992 305.553 222.137 305.861 228.284 305.796C234.429 305.846 240.572 305.554 246.685 304.922C252.876 304.242 259.102 303.934 265.33 304C274.603 304 279.313 304 283.877 304C288.441 304 293.102 304 302.375 304C311.649 304 316.262 304.728 321.117 305.068C325.972 305.408 330.342 305.748 339.567 305.748C348.792 305.748 353.502 305.748 358.017 305.311C362.533 304.874 367.339 304.825 376.613 304.825C382.893 304.755 389.166 305.258 395.354 306.331C401.302 307.36 407.331 307.847 413.367 307.787Z" fill="white"/>
<path d="M413.367 288.9L413.367 291.328C404.094 291.328 399.433 291.328 394.772 291.328C390.111 291.328 385.547 291.328 376.273 291.328C366.999 291.328 362.338 291.328 357.774 291.619C353.21 291.91 348.501 291.959 339.227 291.959C329.954 291.959 325.244 291.959 320.68 291.668C316.116 291.376 311.406 290.794 302.375 290.794C293.345 290.794 288.489 290.794 283.828 290.794C279.167 290.794 274.603 290.794 265.33 290.794C259.1 290.84 252.873 290.499 246.685 289.774C240.579 289.05 234.433 288.71 228.284 288.754C222.134 288.601 215.992 289.287 210.028 290.794C203.897 292.396 197.574 293.147 191.238 293.027C181.964 293.027 177.255 292.736 172.642 292.493C168.03 292.25 163.466 291.91 154.241 291.91C147.961 291.981 141.687 291.477 135.499 290.405C129.454 289.379 123.325 288.924 117.195 289.046L117.195 286.618C123.459 286.544 129.716 287.048 135.888 288.123C141.945 289.195 148.089 289.699 154.241 289.628C163.514 289.628 168.224 289.92 172.788 290.211C177.352 290.502 182.013 290.745 191.238 290.745C197.378 290.852 203.504 290.117 209.445 288.56C215.584 287.004 221.903 286.27 228.235 286.375C234.465 286.329 240.692 286.669 246.88 287.395C252.984 288.145 259.131 288.486 265.281 288.414C274.555 288.414 279.167 288.414 283.828 288.414C288.489 288.414 293.053 288.414 302.327 288.414C311.601 288.414 316.31 288.414 320.874 288.706C325.438 288.997 330.148 288.997 339.373 288.997C348.598 288.997 353.307 288.997 357.871 288.706C362.435 288.414 367.145 288.366 376.419 288.366C385.692 288.366 390.353 288.366 394.966 288.366C399.578 288.366 404.288 288.9 413.367 288.9Z" fill="white"/>
<path d="M413.367 269.43L413.367 271.858C404.045 271.858 399.336 271.615 394.772 271.421C390.208 271.227 385.547 271.033 376.273 271.033C366.999 271.033 362.241 271.033 357.677 270.499C353.113 269.964 348.452 269.964 339.227 269.964C333.158 269.803 327.088 270.275 321.117 271.372C314.939 272.536 308.662 273.089 302.375 273.023C296.234 272.952 290.097 273.374 284.022 274.286C277.832 275.17 271.583 275.592 265.33 275.548C258.975 275.654 252.636 274.886 246.491 273.266C240.543 271.77 234.412 271.132 228.284 271.372C219.059 271.372 214.398 271.761 209.882 272.149C205.367 272.538 200.56 272.926 191.238 272.926C181.916 272.926 177.255 272.926 172.691 272.926C168.127 272.926 163.466 272.926 154.241 272.926C147.998 272.82 141.77 272.301 135.596 271.372C129.485 270.712 123.341 270.404 117.195 270.45L117.195 268.022C123.425 267.976 129.651 268.317 135.839 269.042C141.947 269.745 148.093 270.069 154.241 270.013C163.514 270.013 168.224 270.013 172.739 270.013C177.255 270.013 182.013 270.013 191.238 270.013C200.463 270.013 205.124 269.625 209.688 269.236C214.252 268.848 218.962 268.459 228.284 268.459C234.622 268.349 240.946 269.117 247.074 270.741C253.027 272.324 259.17 273.075 265.33 272.975C271.471 273.046 277.609 272.623 283.683 271.712C289.871 270.803 296.121 270.381 302.375 270.45C308.518 270.538 314.653 269.985 320.68 268.799C326.854 267.612 333.134 267.058 339.421 267.148C348.695 267.148 353.453 267.44 358.017 267.682C362.581 267.925 367.242 268.217 376.467 268.217C385.692 268.217 390.499 268.217 395.063 268.605C399.627 268.993 404.288 269.43 413.367 269.43Z" fill="white"/>
<path d="M413.367 252.243L413.367 254.67C407.215 254.618 401.067 254.992 394.966 255.787C388.829 256.54 382.649 256.881 376.467 256.807C370.106 256.916 363.763 256.115 357.629 254.427C351.701 252.795 345.569 252.026 339.421 252.146C330.148 252.146 325.535 252.146 320.923 252.146C316.31 252.146 311.649 252.146 302.375 252.146C293.102 252.146 288.489 252.534 283.925 252.874C279.361 253.214 274.652 253.651 265.33 253.651C256.007 253.651 251.298 253.262 246.685 252.874C242.073 252.485 237.509 252.146 228.284 252.146C222.124 252.017 215.987 252.92 210.125 254.816C204.025 256.776 197.643 257.711 191.238 257.583C184.82 257.724 178.428 256.738 172.351 254.67C166.524 252.695 160.391 251.774 154.241 251.951C145.016 251.951 140.354 252.34 135.79 252.68C131.227 253.019 126.517 253.505 117.195 253.505L117.195 251.077C126.42 251.077 131.081 250.689 135.596 250.349C140.112 250.009 144.918 249.621 154.241 249.621C160.646 249.486 167.024 250.488 173.079 252.582C178.918 254.586 185.066 255.539 191.238 255.399C197.414 255.546 203.571 254.643 209.445 252.728C215.528 250.768 221.894 249.832 228.284 249.961C237.606 249.961 242.316 250.349 246.88 250.737C251.443 251.126 256.105 251.466 265.33 251.466C274.555 251.466 279.216 251.077 283.731 250.689C288.247 250.301 293.053 249.961 302.375 249.961C311.698 249.961 316.262 249.961 320.874 249.961C325.487 249.961 330.148 249.961 339.421 249.961C345.764 249.725 352.107 250.395 358.26 251.951C364.188 253.584 370.32 254.353 376.467 254.233C382.619 254.285 388.768 253.912 394.869 253.117C401.008 252.412 407.189 252.12 413.367 252.243V252.243Z" fill="white"/>
<path d="M413.367 235.637L413.367 238.065C404.045 238.065 399.336 238.065 394.772 237.774C390.208 237.482 385.547 237.774 376.273 237.774C366.999 237.774 362.387 237.774 357.774 237.774C353.162 237.774 348.501 237.774 339.227 237.774L302.375 237.774C293.15 237.774 288.489 238.211 283.974 238.551C279.459 238.891 274.652 239.376 265.33 239.376C256.007 239.376 251.298 239.376 246.782 239.036C242.267 238.696 237.509 238.696 228.284 238.696C219.059 238.696 214.349 238.696 209.834 239.133C205.318 239.57 200.56 239.57 191.238 239.57C181.916 239.57 177.255 239.327 172.691 239.036C168.127 238.745 163.466 238.551 154.241 238.551C147.929 238.625 141.628 238.007 135.451 236.706C129.454 235.412 123.329 234.81 117.195 234.909L117.195 232.53C123.492 232.428 129.78 233.047 135.936 234.375C141.949 235.668 148.091 236.271 154.241 236.172C163.514 236.172 168.224 236.172 172.788 236.657C177.352 237.143 182.013 237.191 191.238 237.191C200.463 237.191 205.173 237.191 209.688 236.754C214.203 236.317 219.01 236.317 228.284 236.317C237.557 236.317 242.267 236.317 246.831 236.657C251.395 236.997 256.105 236.997 265.33 236.997C274.555 236.997 279.216 236.56 283.731 236.22C288.247 235.88 293.053 235.395 302.375 235.395L339.421 235.395C348.695 235.395 353.307 235.395 357.92 235.395C362.533 235.395 367.194 235.395 376.467 235.395C385.741 235.395 390.499 235.395 395.063 235.395C399.627 235.395 404.288 235.637 413.367 235.637Z" fill="white"/>
<path d="M413.367 217.624L413.367 220.052C407.086 220.113 400.812 219.592 394.626 218.498C388.574 217.379 382.427 216.859 376.273 216.945C370.138 216.871 364.009 217.375 357.969 218.45C351.786 219.569 345.51 220.089 339.227 220.003C329.954 220.003 325.341 220.003 320.68 220.003L302.375 220.003C293.053 220.003 288.344 219.664 283.78 219.324C279.216 218.984 274.555 218.644 265.33 218.644C256.105 218.644 251.395 218.935 246.88 219.227C242.364 219.518 237.557 219.809 228.284 219.809C222.055 219.865 215.829 219.541 209.639 218.838C203.527 218.199 197.383 217.907 191.238 217.964C185.096 217.893 178.959 218.315 172.885 219.227C166.713 220.139 160.479 220.561 154.241 220.489C147.918 220.577 141.608 219.892 135.451 218.45C129.477 216.991 123.343 216.29 117.195 216.362L117.195 213.934C123.519 213.826 129.831 214.511 135.985 215.974C141.962 217.405 148.096 218.074 154.241 217.964C160.382 218.035 166.52 217.613 172.594 216.702C178.765 215.79 185 215.368 191.238 215.439C197.465 215.399 203.69 215.707 209.882 216.362C215.99 217.064 222.136 217.388 228.284 217.333C237.509 217.333 242.17 216.993 246.734 216.75C251.298 216.508 256.007 216.168 265.33 216.168C274.652 216.168 279.361 216.508 283.925 216.848C288.489 217.187 293.15 217.527 302.375 217.527L321.117 217.527C325.972 217.527 330.391 217.527 339.664 217.527C345.799 217.601 351.928 217.097 357.969 216.022C364.151 214.903 370.427 214.382 376.71 214.468C382.992 214.408 389.265 214.928 395.451 216.022C401.358 217.129 407.358 217.666 413.367 217.624V217.624Z" fill="white"/>
<path d="M413.367 197.184L413.367 199.611C404.094 199.611 399.433 199.611 394.82 199.611L376.467 199.611C367.242 199.611 362.533 199.611 357.969 199.951C353.405 200.291 348.695 200.291 339.421 200.291C333.31 200.218 327.2 200.477 321.117 201.068C316.504 201.456 311.795 201.893 302.473 201.893C296.243 201.94 290.016 201.599 283.828 200.874C277.72 200.172 271.575 199.848 265.427 199.903C256.153 199.903 251.443 199.903 246.88 199.66C242.316 199.417 237.606 199.66 228.381 199.66C222.227 199.537 216.089 200.339 210.174 202.039C204.049 203.776 197.7 204.594 191.335 204.467C184.99 204.581 178.661 203.779 172.545 202.088C166.624 200.417 160.489 199.631 154.338 199.757C148.187 199.649 142.049 200.351 136.082 201.845C129.9 203.328 123.549 203.981 117.195 203.787L117.195 201.359C123.345 201.467 129.483 200.765 135.451 199.271C141.59 197.716 147.908 196.981 154.241 197.087C160.586 196.976 166.913 197.777 173.031 199.466C178.951 201.137 185.087 201.922 191.238 201.796C197.388 201.904 203.521 201.119 209.445 199.466C215.567 197.711 221.916 196.876 228.284 196.989C237.557 196.989 242.267 196.989 246.831 196.989C251.395 196.989 256.056 197.232 265.33 197.232C271.566 197.283 277.792 197.72 283.974 198.543C290.082 199.245 296.227 199.569 302.375 199.514C308.522 199.501 314.664 199.177 320.777 198.543C326.972 197.933 333.196 197.657 339.421 197.718C348.646 197.718 353.356 197.718 357.92 197.378C362.484 197.038 367.194 197.038 376.467 197.038L395.014 197.038C399.627 197.135 404.288 197.184 413.367 197.184Z" fill="white"/>
<path d="M413.367 182.521L413.367 184.948C404.094 184.948 399.481 184.948 394.82 184.948C390.159 184.948 385.547 184.948 376.273 184.948C366.999 184.948 362.241 184.657 357.677 184.366C353.113 184.074 348.452 183.783 339.227 183.783C330.002 183.783 325.341 183.783 320.728 183.783C316.116 183.783 311.455 183.783 302.181 183.783C292.908 183.783 288.149 183.783 283.586 183.297C279.022 182.812 274.36 182.763 265.135 182.763C255.91 182.763 251.249 182.763 246.588 182.763L228.284 182.763C219.059 182.763 214.349 182.763 209.834 183.152C205.318 183.54 200.56 183.977 191.238 183.977C181.916 183.977 177.206 183.637 172.642 183.298C168.078 182.958 163.417 182.569 154.241 182.569C145.064 182.569 140.354 182.569 135.742 182.569C131.129 182.569 126.468 182.569 117.195 182.569L117.195 180.142C126.42 180.142 131.081 180.142 135.693 180.142C140.306 180.142 144.967 180.142 154.241 180.142C163.514 180.142 168.272 180.53 172.836 180.87C177.4 181.21 182.061 181.55 191.238 181.55C200.414 181.55 205.173 181.55 209.737 181.161C214.301 180.773 219.01 180.773 228.284 180.773L246.782 180.773C251.638 180.773 256.056 180.773 265.33 180.773C274.603 180.773 279.361 181.016 283.925 181.307C288.489 181.598 293.15 181.792 302.375 181.792C311.601 181.792 316.262 181.792 320.874 181.792C325.487 181.792 330.148 181.792 339.421 181.792C348.695 181.792 353.453 182.084 358.017 182.375C362.581 182.666 367.242 182.958 376.467 182.958C385.692 182.958 390.353 182.958 395.014 182.958C399.675 182.958 404.288 182.521 413.367 182.521Z" fill="white"/>
<path d="M413.367 163.536L413.367 165.964C407.123 166.018 400.88 165.694 394.675 164.993C388.563 164.337 382.419 164.029 376.273 164.07C366.999 164.07 362.29 164.07 357.726 163.731C353.162 163.391 348.452 163.391 339.227 163.391C330.002 163.391 325.292 163.391 320.728 163.779C316.164 164.168 311.455 164.119 302.181 164.119C292.908 164.119 288.441 164.556 283.925 164.556C279.41 164.556 274.603 165.139 265.33 165.139C259.186 165.103 253.044 165.379 246.928 165.964C240.733 166.573 234.509 166.848 228.284 166.789C219.01 166.789 214.398 166.789 209.737 166.789C205.075 166.789 200.511 166.789 191.238 166.789C181.964 166.789 177.352 167.129 172.836 167.469C168.321 167.809 163.514 168.197 154.241 168.197C147.87 168.304 141.52 167.453 135.402 165.673C129.496 163.918 123.355 163.083 117.195 163.197L117.195 160.769C123.566 160.641 129.92 161.493 136.033 163.294C141.946 165.015 148.084 165.833 154.241 165.721C163.417 165.721 168.127 165.381 172.642 164.993C177.158 164.605 181.964 164.313 191.238 164.313C200.511 164.313 205.173 164.313 209.785 164.313C214.398 164.313 219.01 164.313 228.284 164.313C234.428 164.374 240.571 164.098 246.685 163.488C251.249 163.099 256.007 162.662 265.33 162.662C274.652 162.662 279.216 162.371 283.78 162.08C288.344 161.788 293.053 161.497 302.375 161.497C311.698 161.497 316.31 161.497 320.826 161.157C325.341 160.817 330.148 160.769 339.421 160.769C348.695 160.769 353.405 160.769 357.969 161.109C362.533 161.449 367.242 161.449 376.467 161.449C382.696 161.393 388.922 161.717 395.112 162.42C401.171 163.131 407.266 163.504 413.367 163.536V163.536Z" fill="white"/>
<path d="M413.367 143.338L413.367 145.766C407.208 145.661 401.056 146.215 395.014 147.417C388.843 148.628 382.562 149.197 376.273 149.116C370.04 149.168 363.811 148.795 357.629 148C351.526 147.23 345.378 146.873 339.227 146.931C330.002 146.931 325.341 147.32 320.777 147.66C316.213 148 311.503 148.388 302.181 148.388C295.928 148.467 289.679 148.061 283.488 147.174C277.408 146.333 271.273 145.943 265.135 146.009C258.999 145.958 252.867 146.331 246.782 147.126C240.59 147.988 234.342 148.394 228.09 148.339L191.238 148.339C181.964 148.339 177.206 148 172.642 147.66C168.078 147.32 163.417 147.028 154.241 147.028C145.064 147.028 140.306 147.368 135.79 147.66C131.275 147.951 126.517 148.339 117.195 148.339L117.195 145.912C126.42 145.912 131.081 145.572 135.596 145.232C140.112 144.892 144.918 144.601 154.241 144.601C163.563 144.601 168.272 145.135 172.836 145.135C177.4 145.135 182.061 145.766 191.238 145.766L228.284 145.766C234.422 145.832 240.556 145.442 246.637 144.601C252.831 143.761 259.079 143.371 265.33 143.436C271.583 143.356 277.832 143.762 284.022 144.649C290.103 145.491 296.237 145.88 302.375 145.815C311.601 145.815 316.262 145.475 320.777 145.086C325.292 144.698 330.099 144.358 339.421 144.358C345.653 144.297 351.882 144.654 358.066 145.426C364.167 146.218 370.315 146.591 376.467 146.543C382.618 146.733 388.771 146.261 394.82 145.135C400.926 143.908 407.14 143.306 413.367 143.338V143.338Z" fill="white"/>
<path d="M413.367 129.986L413.367 132.414C407.087 132.485 400.814 131.981 394.626 130.909C388.566 129.859 382.422 129.371 376.273 129.452C370.129 129.418 363.988 129.694 357.871 130.278C351.677 130.909 345.453 131.201 339.227 131.152C329.954 131.152 325.195 131.152 320.631 130.763C316.067 130.375 311.406 130.569 302.375 130.569C296.237 130.503 290.103 130.893 284.022 131.734C277.825 132.549 271.58 132.939 265.33 132.9C256.056 132.9 251.443 132.9 246.782 132.9C242.121 132.9 237.557 132.9 228.284 132.9L191.238 132.9C184.922 132.846 178.633 132.064 172.496 130.569C166.502 129.257 160.376 128.638 154.241 128.724C144.967 128.724 140.306 128.724 135.693 128.724C131.081 128.724 126.42 128.724 117.195 128.724L117.195 125.714C126.468 125.714 131.081 125.714 135.742 125.714C140.403 125.714 144.967 125.714 154.241 125.714C160.54 125.624 166.828 126.259 172.982 127.607C178.977 128.919 185.102 129.538 191.238 129.452L228.284 129.452C237.557 129.452 242.17 129.452 246.831 129.452C251.492 129.452 256.056 129.452 265.33 129.452C271.468 129.518 277.602 129.128 283.683 128.287C289.877 127.447 296.125 127.057 302.375 127.122C311.649 127.122 316.359 127.122 320.923 127.51C325.487 127.899 330.196 127.899 339.421 127.899C345.565 127.934 351.707 127.659 357.823 127.073C364.017 126.442 370.241 126.15 376.467 126.199C382.747 126.128 389.02 126.632 395.209 127.704C401.183 128.995 407.259 129.759 413.367 129.986V129.986Z" fill="white"/>
<path d="M413.367 107.506L413.367 109.934C407.212 109.831 401.067 110.467 395.063 111.828C388.896 113.2 382.59 113.852 376.273 113.77C369.952 113.863 363.644 113.195 357.483 111.779C351.496 110.418 345.366 109.782 339.227 109.885C329.954 109.885 325.341 109.885 320.68 109.885C316.019 109.885 311.455 109.885 302.181 109.885C292.908 109.885 288.247 109.885 283.683 110.274C279.119 110.662 274.409 110.662 265.135 110.662C255.862 110.662 251.152 110.662 246.588 110.371C242.024 110.08 237.315 110.371 228.09 110.371C218.864 110.371 214.203 110.371 209.591 110.371C204.978 110.371 200.317 110.371 191.044 110.371C181.77 110.371 177.06 110.371 172.496 109.983C167.932 109.594 163.271 109.643 154.046 109.643C144.821 109.643 140.112 109.983 135.596 110.274C131.081 110.565 126.517 110.662 117.195 110.662L117.195 108.235C126.42 108.235 131.081 107.895 135.596 107.603C140.112 107.312 144.918 106.924 154.241 106.924C163.563 106.924 168.224 106.924 172.788 107.264C177.352 107.603 182.013 107.652 191.238 107.652C200.463 107.652 205.124 107.652 209.737 107.652C214.349 107.652 219.01 107.652 228.284 107.652C237.557 107.652 242.267 107.652 246.831 107.652C251.395 107.652 256.056 107.943 265.33 107.943C274.603 107.943 279.264 107.943 283.78 107.555C288.295 107.167 293.102 107.167 302.375 107.167C311.649 107.167 316.262 107.167 320.923 107.167C325.584 107.167 330.148 107.167 339.421 107.167C345.739 107.088 352.044 107.739 358.211 109.109C364.187 110.549 370.321 111.234 376.467 111.148C382.622 111.251 388.768 110.615 394.772 109.254C400.879 107.938 407.121 107.351 413.367 107.506V107.506Z" fill="white"/>
<path d="M413.367 93.1833L413.367 95.6109C404.045 95.6109 399.287 95.271 394.723 94.8826C390.159 94.4942 385.498 94.2029 376.273 94.2029C370.046 94.2421 363.821 93.9341 357.629 93.2804C351.517 92.6262 345.373 92.3182 339.227 92.3578C329.954 92.3578 325.292 92.3578 320.68 92.3578C316.067 92.3578 311.406 92.3578 302.181 92.3578C292.956 92.3578 288.247 92.3578 283.634 92.3578C279.022 92.3578 274.36 92.3578 265.135 92.3578C258.984 92.2241 252.847 93.0097 246.928 94.6884C240.794 96.3756 234.45 97.1768 228.09 97.0675C218.816 97.0675 214.106 97.0675 209.542 97.0675C204.978 97.0675 200.317 96.8247 191.044 96.8247C181.77 96.8247 177.012 96.4849 172.448 96.1935C167.884 95.9022 163.223 95.5624 154.046 95.5624C147.799 95.6214 141.554 95.2646 135.353 94.4942C129.353 93.4061 123.287 92.7248 117.195 92.455L117.195 90.0273C123.426 89.9912 129.653 90.3479 135.839 91.0955C141.942 91.8686 148.09 92.2255 154.241 92.1636C163.514 92.1636 168.272 92.5035 172.836 92.7948C177.4 93.0862 182.013 93.426 191.238 93.426C200.463 93.426 205.221 93.426 209.785 93.6688C214.349 93.9116 219.059 93.6688 228.284 93.6688C234.416 93.929 240.552 93.2744 246.491 91.7267C252.624 90.0355 258.969 89.2343 265.33 89.3476C274.603 89.3476 279.216 89.3476 283.877 89.3476C288.538 89.3476 293.102 89.3476 302.375 89.3476C311.649 89.3476 316.262 89.3476 320.923 89.3476C325.584 89.3476 330.148 89.3476 339.421 89.3476C345.648 89.3069 351.873 89.6148 358.066 90.2701C364.167 91.1027 370.311 91.589 376.467 91.7267C385.789 91.7267 390.548 92.0665 395.112 92.4064C399.675 92.7463 404.337 93.1833 413.367 93.1833Z" fill="white"/>
<path d="M413.367 71.8201L413.367 74.2477C404.093 74.2477 399.384 74.2477 394.868 74.539C390.353 74.8303 385.546 74.8303 376.273 74.8303C370.13 74.7153 363.997 75.3677 358.017 76.7724C351.856 78.1882 345.547 78.8565 339.227 78.7631C332.971 78.8245 326.72 78.3861 320.534 77.4522C314.46 76.541 308.322 76.1189 302.181 76.1898C292.859 76.1898 288.149 75.8014 283.536 75.4615C278.924 75.1217 274.36 74.6847 265.135 74.6847C258.988 74.6184 252.843 74.9265 246.733 75.6072C240.539 76.2385 234.315 76.5302 228.089 76.4811C218.815 76.4811 214.203 76.4811 209.59 76.4811C204.978 76.4811 200.317 76.4811 191.043 76.4811C184.91 76.4358 178.78 76.7764 172.69 77.5007C166.506 78.2716 160.277 78.6284 154.046 78.5689C144.724 78.5689 140.014 78.5689 135.45 78.229C130.886 77.8892 126.225 77.8406 117 77.8406L117 75.413C126.274 75.413 130.983 75.413 135.547 75.8014C140.111 76.1898 144.772 76.1413 154.046 76.1413C160.179 76.1866 166.309 75.846 172.399 75.1217C178.583 74.3508 184.812 73.994 191.043 74.0535C200.317 74.0535 204.929 74.0535 209.542 74.0535C214.154 74.0535 218.815 74.0535 228.089 74.0535C234.234 74.1029 240.378 73.8111 246.491 73.1795C252.749 72.5332 259.038 72.2415 265.329 72.3056C274.651 72.3056 279.361 72.694 283.925 73.0824C288.489 73.4709 293.15 73.8107 302.375 73.8107C308.644 73.7228 314.911 74.1286 321.116 75.0245C327.188 75.9578 333.326 76.3963 339.469 76.3355C345.611 76.4288 351.741 75.7767 357.725 74.3934C363.866 72.9488 370.158 72.2479 376.467 72.3056C385.74 72.3056 390.45 72.3056 394.965 72.0143C399.481 71.723 404.239 71.8201 413.367 71.8201Z" fill="white"/>
<path d="M413.367 55.1178L413.367 57.7397C407.219 57.6833 401.074 58.0076 394.966 58.7107C388.762 59.4338 382.519 59.7743 376.273 59.7304C370.046 59.7696 363.821 59.4616 357.629 58.8078C351.584 58.1123 345.506 57.7557 339.421 57.7397C330.196 57.7397 325.487 58.0795 320.971 58.3708C316.456 58.6622 311.649 58.9535 302.375 58.9535C296.223 58.9035 290.075 59.2766 283.974 60.0702C277.792 60.8652 271.563 61.2383 265.33 61.1869C258.975 61.2926 252.636 60.5248 246.491 58.9049C240.552 57.3395 234.425 56.6043 228.284 56.7201C219.059 56.7201 214.349 56.7201 209.785 57.0114C205.221 57.3027 200.511 57.3027 191.238 57.3027C185.092 57.2647 178.948 57.5726 172.836 58.2252C166.663 58.9283 160.453 59.2527 154.241 59.1963C148.009 59.2577 141.78 58.9008 135.596 58.1281C129.491 57.3897 123.345 57.0329 117.195 57.0599L117.195 54.6323C123.425 54.586 129.651 54.9265 135.839 55.6519C141.942 56.4251 148.09 56.7819 154.241 56.7201C160.372 56.7752 166.502 56.4509 172.594 55.749C178.786 55.0953 185.011 54.7873 191.238 54.8265C200.511 54.8265 205.173 54.8265 209.737 54.5352C214.301 54.2439 219.01 54.2439 228.284 54.2439C234.622 54.134 240.946 54.9019 247.074 56.5259C253.03 58.0872 259.173 58.8223 265.33 58.7107C271.462 58.8096 277.595 58.4851 283.683 57.7397C289.881 56.9469 296.126 56.5738 302.375 56.6229C311.601 56.6229 316.262 56.3316 320.826 56.0403C325.39 55.749 330.099 55.4091 339.421 55.4091C345.648 55.3684 351.873 55.6764 358.066 56.3316C364.175 57.0108 370.32 57.3189 376.467 57.2541C382.617 57.3258 388.765 56.9851 394.869 56.2345C401.007 55.4913 407.184 55.1184 413.367 55.1178V55.1178Z" fill="white"/>
<path d="M413.367 38.3184L413.367 40.7461C407.205 40.697 401.046 40.9887 394.917 41.62C388.724 42.2753 382.5 42.5833 376.273 42.5426C367.047 42.5426 362.338 42.5426 357.774 42.5426C353.21 42.5426 348.5 42.5426 339.227 42.5426C329.953 42.5426 325.195 42.1056 320.582 41.7171C315.97 41.3287 311.406 40.9403 302.181 40.9403C292.956 40.9403 288.149 40.5519 283.536 40.1635C278.924 39.775 274.36 39.3866 265.135 39.3866C255.91 39.3866 251.2 39.7265 246.685 40.0178C242.169 40.3091 237.363 40.6004 228.089 40.6004C218.815 40.6004 214.057 40.3091 209.493 40.0178C204.929 39.7265 200.268 39.4352 191.043 39.4352C181.818 39.4352 177.108 39.4352 172.593 39.8236C168.078 40.212 163.319 40.212 154.046 40.212C144.772 40.212 140.16 40.212 135.499 40.212C130.838 40.212 126.274 40.212 117 40.212L117 38.3185C126.274 38.3185 130.886 38.3185 135.499 38.3185C140.111 38.3185 144.772 38.3185 154.046 38.3185C163.319 38.3185 167.932 38.3185 172.496 37.93C177.06 37.5416 181.77 37.5416 191.043 37.5416C200.317 37.5416 205.075 37.8815 209.639 38.1728C214.203 38.4641 218.864 38.7069 228.089 38.7069C237.314 38.7069 241.975 38.4156 246.539 38.1242C251.103 37.8329 255.813 37.4931 265.135 37.4931C274.457 37.4931 279.167 37.8815 283.731 38.2699C288.295 38.6583 292.956 39.0468 302.181 39.0468C311.406 39.0468 316.261 39.5323 321.116 39.9207C327.232 40.5062 333.374 40.7817 339.518 40.7461C348.743 40.7461 353.453 40.7461 358.017 40.7461C362.581 40.7461 367.29 40.7461 376.564 40.7461C382.726 40.7853 388.886 40.4773 395.014 39.8236C401.1 38.9905 407.227 38.4881 413.367 38.3184V38.3184Z" fill="white"/>
<path d="M413.367 19.48L413.367 21.9076C407.141 21.9581 400.917 21.6663 394.723 21.0337C388.591 20.4499 382.433 20.1744 376.273 20.2082C370.119 20.0896 363.982 20.8915 358.066 22.5874C351.944 24.3463 345.595 25.1809 339.227 25.0635C333.037 25.0762 326.855 24.6381 320.728 23.7526C314.65 22.8888 308.515 22.4831 302.375 22.5388C293.102 22.5388 288.344 22.5388 283.78 22.0047C279.216 21.4706 274.555 21.5192 265.33 21.5192C259.184 21.4683 253.041 21.76 246.928 22.3931C240.735 23.0469 234.511 23.3549 228.284 23.3157C219.059 23.3157 214.398 23.6555 209.834 23.9954C205.27 24.3353 200.56 24.6751 191.238 24.6751C185.026 24.7414 178.817 24.4333 172.642 23.7526C166.529 23.1224 160.386 22.8306 154.241 22.8787C148.014 22.9291 141.79 22.6374 135.596 22.0047C129.479 21.4516 123.337 21.2085 117.195 21.2764L117.195 18.8973C126.517 18.8973 131.227 19.3343 135.839 19.7227C141.952 20.3558 148.095 20.6476 154.241 20.5967C160.452 20.5322 166.662 20.8402 172.836 21.5192C178.949 22.1494 185.093 22.4412 191.238 22.3932C200.463 22.3932 205.173 22.0533 209.688 21.7134C214.203 21.3735 218.962 21.0337 228.284 21.0337C234.431 21.0984 240.576 20.7903 246.685 20.1112C252.879 19.4785 259.104 19.1867 265.33 19.2372C274.603 19.2372 279.361 19.2372 283.925 19.7227C288.489 20.2083 293.15 20.2568 302.375 20.2568C308.643 20.1841 314.907 20.5735 321.117 21.4221C327.193 22.3108 333.33 22.7167 339.47 22.6359C345.624 22.7546 351.761 21.9527 357.677 20.2568C363.799 18.5021 370.148 17.6676 376.516 17.7806C385.838 17.7806 390.596 18.2176 395.16 18.606C401.209 19.2285 407.287 19.5202 413.367 19.48Z" fill="white"/>
<path d="M413.367 2.24369L413.367 4.67134C404.094 4.67134 399.433 4.91412 394.869 5.10834C390.305 5.30255 385.595 5.54529 376.273 5.54529C366.951 5.54529 362.241 5.20544 357.677 4.91412C353.113 4.6228 348.452 4.28291 339.227 4.28291C333.163 4.22113 327.104 4.67593 321.117 5.64239C314.938 6.64574 308.684 7.11682 302.424 7.05043C296.088 7.1706 289.765 6.41909 283.634 4.817C277.674 3.27747 271.532 2.55876 265.378 2.6807C259.23 2.57114 253.09 3.15747 247.074 4.42857C240.911 5.70809 234.626 6.3105 228.332 6.22504C219.107 6.22504 214.398 6.22504 209.834 6.22504C205.27 6.22504 200.56 6.22504 191.286 6.22504C182.013 6.22504 177.449 6.22504 172.788 6.22504C168.127 6.22504 163.514 6.22504 154.289 6.22504C147.939 6.3158 141.604 5.56479 135.451 3.99161C129.471 2.60473 123.323 2.08152 117.195 2.43792L117.195 0.0102774C123.533 -0.0996339 129.857 0.66832 135.985 2.29227C141.948 3.80448 148.091 4.49062 154.241 4.33148C163.466 4.33148 168.078 4.33148 172.739 4.33148C177.4 4.33148 181.964 4.33148 191.238 4.33148C200.511 4.33148 205.173 4.33148 209.737 4.33148C214.301 4.33148 219.01 4.33148 228.284 4.33148C234.431 4.41309 240.568 3.82702 246.588 2.58357C252.751 1.30404 259.036 0.701637 265.33 0.787098C271.666 0.666925 277.988 1.41847 284.12 3.02056C290.084 4.53575 296.223 5.25408 302.375 5.15687C308.522 5.22285 314.663 4.7517 320.728 3.74883C326.909 2.7655 333.163 2.3107 339.421 2.38935C348.743 2.38935 353.453 2.68069 358.017 3.02056C362.581 3.36043 367.242 3.65173 376.467 3.65173C385.692 3.65173 390.402 3.65171 394.966 3.21474C399.53 2.77776 404.239 2.24369 413.367 2.24369Z" fill="white"/>
</g>
</svg>
